<svg width="600" height="523" viewBox="0 0 600 523" fill="none" xmlns="http://www.w3.org/2000/svg">
<g id="img-home">
<path id="Vector" d="M540.983 271.973C541.061 336.641 516.066 398.82 471.251 445.44C468.549 448.269 465.774 451.029 462.927 453.722C458.588 457.849 454.104 461.816 449.474 465.623C406.162 501.307 352.091 521.359 295.985 522.544C294.116 522.586 292.24 522.608 290.356 522.608C245.61 522.608 189.331 498.708 138.257 465.623C134.031 462.885 129.843 460.085 125.693 457.221C123.753 455.895 121.823 454.55 119.902 453.186C100.203 439.276 81.5055 424.001 63.9464 407.473C52.4498 396.684 41.669 385.156 31.6727 372.964C-7.57073 324.557 -16.2264 280.939 39.7217 271.973C46.3457 270.915 52.7746 269.784 59.0083 268.58C68.0379 266.845 76.6795 264.971 84.9331 262.958C96.0507 260.256 106.496 257.326 116.269 254.168C119.556 253.11 122.768 252.031 125.905 250.93C172.28 234.642 203.319 213.401 224.447 190.354C228.031 186.453 231.335 182.505 234.359 178.51C238.985 172.429 243.188 166.037 246.936 159.379C252.111 150.128 256.456 140.437 259.923 130.421L260.114 129.87C276.924 81.3788 271.81 36.4002 290.356 21.3462C369.633 -43.0107 468.33 48.6395 514.656 156.719C516.991 162.165 519.188 167.644 521.245 173.156C522.169 175.618 523.06 178.085 523.919 180.556C526.176 186.997 528.224 193.454 530.063 199.927C530.769 202.396 531.441 204.863 532.081 207.327C532.765 209.987 533.421 212.639 534.028 215.292C538.535 234.712 540.983 253.865 540.983 271.973Z" fill="#F2F2F2"/>
<path id="Vector_2" d="M295.985 522.544C294.116 522.587 292.239 522.608 290.356 522.608C245.61 522.608 189.33 498.708 138.257 465.623C134.031 462.886 129.843 460.085 125.693 457.221L129.333 435.07L239.529 420.439L294.835 462.73L295.985 522.544Z" fill="#2F2E41"/>
<path id="Vector_3" d="M301.29 127.013H285.587C285.101 127.014 284.634 127.207 284.291 127.551C283.947 127.895 283.753 128.361 283.753 128.847V144.557C283.753 144.798 283.801 145.036 283.893 145.258C283.986 145.48 284.121 145.682 284.291 145.851C284.462 146.021 284.664 146.155 284.886 146.247C285.108 146.339 285.347 146.385 285.587 146.385H301.29C301.775 146.385 302.241 146.193 302.585 145.85C302.929 145.508 303.123 145.043 303.124 144.557V128.847C303.123 128.361 302.929 127.896 302.586 127.552C302.242 127.208 301.776 127.015 301.29 127.013Z" fill="#02005B"/>
<path id="Vector_4" d="M301.29 153.785H285.587C285.101 153.785 284.634 153.978 284.291 154.322C283.947 154.666 283.753 155.132 283.753 155.619V171.329C283.753 171.569 283.801 171.807 283.893 172.029C283.986 172.251 284.121 172.453 284.291 172.623C284.462 172.792 284.664 172.927 284.886 173.018C285.108 173.11 285.347 173.157 285.587 173.156H301.29C301.775 173.156 302.241 172.964 302.585 172.621C302.929 172.279 303.123 171.814 303.124 171.329V155.619C303.123 155.133 302.929 154.667 302.586 154.323C302.242 153.98 301.776 153.786 301.29 153.785Z" fill="#E6E6E6"/>
<path id="Vector_5" d="M301.29 180.556H285.587C285.101 180.556 284.634 180.75 284.291 181.093C283.947 181.437 283.753 181.904 283.753 182.39V198.093C283.753 198.334 283.8 198.573 283.892 198.796C283.984 199.018 284.119 199.221 284.289 199.391C284.46 199.561 284.662 199.697 284.885 199.789C285.107 199.881 285.346 199.928 285.587 199.927H301.29C301.777 199.927 302.243 199.734 302.587 199.39C302.931 199.046 303.124 198.58 303.124 198.093V182.39C303.123 181.904 302.929 181.438 302.586 181.095C302.242 180.751 301.776 180.557 301.29 180.556Z" fill="#E6E6E6"/>
<path id="Vector_6" d="M303.096 208.837C303.018 208.414 302.795 208.033 302.465 207.757C302.135 207.481 301.72 207.329 301.29 207.327H285.587C285.101 207.327 284.634 207.521 284.291 207.865C283.947 208.209 283.753 208.675 283.753 209.161V224.864C283.753 225.105 283.8 225.344 283.892 225.567C283.984 225.79 284.119 225.992 284.289 226.162C284.46 226.333 284.662 226.468 284.885 226.56C285.107 226.652 285.346 226.699 285.587 226.699H301.29C301.777 226.698 302.243 226.505 302.587 226.161C302.931 225.817 303.124 225.351 303.124 224.864V209.161C303.126 209.053 303.116 208.944 303.096 208.837Z" fill="#E6E6E6"/>
<path id="Vector_7" d="M302.003 234.24C301.777 234.146 301.535 234.098 301.29 234.099H285.587C285.346 234.098 285.107 234.145 284.885 234.237C284.662 234.329 284.46 234.464 284.289 234.635C284.119 234.805 283.984 235.008 283.892 235.23C283.8 235.453 283.753 235.692 283.753 235.933V251.636C283.752 251.877 283.799 252.116 283.891 252.339C283.982 252.562 284.117 252.765 284.288 252.935C284.458 253.106 284.661 253.241 284.884 253.332C285.107 253.424 285.346 253.471 285.587 253.47H301.29C301.777 253.47 302.243 253.276 302.587 252.932C302.931 252.589 303.124 252.122 303.124 251.636V235.933C303.124 235.572 303.017 235.219 302.817 234.918C302.618 234.617 302.335 234.381 302.003 234.24Z" fill="#E6E6E6"/>
<path id="Vector_8" d="M334.276 127.013H318.573C318.087 127.014 317.621 127.207 317.277 127.551C316.933 127.895 316.739 128.361 316.739 128.847V144.557C316.739 144.798 316.787 145.036 316.879 145.258C316.972 145.48 317.107 145.682 317.277 145.851C317.448 146.021 317.65 146.155 317.872 146.247C318.095 146.339 318.333 146.385 318.573 146.385H334.276C334.762 146.385 335.227 146.193 335.571 145.85C335.915 145.508 336.109 145.043 336.11 144.557V128.847C336.109 128.361 335.915 127.896 335.572 127.552C335.228 127.208 334.762 127.015 334.276 127.013Z" fill="#E6E6E6"/>
<path id="Vector_9" d="M334.276 153.785H318.573C318.087 153.785 317.621 153.978 317.277 154.322C316.933 154.666 316.739 155.132 316.739 155.619V171.329C316.739 171.569 316.787 171.807 316.879 172.029C316.972 172.251 317.107 172.453 317.277 172.623C317.448 172.792 317.65 172.927 317.872 173.018C318.095 173.11 318.333 173.157 318.573 173.156H334.276C334.762 173.156 335.227 172.964 335.571 172.621C335.915 172.279 336.109 171.814 336.11 171.329V155.619C336.109 155.133 335.915 154.667 335.572 154.323C335.228 153.98 334.762 153.786 334.276 153.785Z" fill="#2C28FF"/>
<path id="Vector_10" d="M334.276 180.556H318.573C318.087 180.556 317.621 180.75 317.277 181.093C316.933 181.437 316.739 181.904 316.739 182.39V198.093C316.739 198.334 316.786 198.573 316.878 198.796C316.97 199.018 317.105 199.221 317.275 199.391C317.446 199.561 317.648 199.697 317.871 199.789C318.094 199.881 318.332 199.928 318.573 199.927H334.276C334.763 199.927 335.229 199.734 335.573 199.39C335.917 199.046 336.11 198.58 336.111 198.093V182.39C336.109 181.904 335.915 181.438 335.572 181.095C335.228 180.751 334.762 180.557 334.276 180.556Z" fill="#2C28FF"/>
<path id="Vector_11" d="M334.276 207.327H318.573C318.189 207.328 317.814 207.449 317.503 207.674C317.191 207.9 316.958 208.218 316.838 208.583C316.773 208.769 316.739 208.964 316.739 209.161V224.864C316.739 225.105 316.786 225.344 316.878 225.567C316.97 225.79 317.105 225.992 317.275 226.162C317.446 226.333 317.648 226.468 317.871 226.56C318.094 226.652 318.332 226.699 318.573 226.699H334.276C334.763 226.698 335.229 226.505 335.573 226.161C335.917 225.817 336.11 225.351 336.111 224.864V209.161C336.109 208.675 335.915 208.21 335.572 207.866C335.228 207.522 334.762 207.329 334.276 207.327Z" fill="#2C28FF"/>
<path id="Vector_12" d="M334.276 234.099H318.573C318.332 234.098 318.094 234.145 317.871 234.237C317.648 234.329 317.446 234.464 317.275 234.635C317.105 234.805 316.97 235.008 316.878 235.23C316.786 235.453 316.739 235.692 316.739 235.933V251.636C316.739 251.877 316.786 252.115 316.878 252.338C316.97 252.561 317.105 252.763 317.275 252.934C317.446 253.104 317.648 253.239 317.871 253.331C318.094 253.423 318.332 253.47 318.573 253.47H334.276C334.763 253.47 335.229 253.276 335.573 252.932C335.917 252.589 336.11 252.122 336.111 251.636V235.933C336.11 235.446 335.917 234.98 335.573 234.636C335.229 234.292 334.763 234.099 334.276 234.099Z" fill="#E6E6E6"/>
<path id="Vector_13" d="M367.263 127.013H351.56C351.074 127.014 350.607 127.207 350.263 127.551C349.919 127.895 349.726 128.361 349.726 128.847V144.557C349.726 144.798 349.774 145.036 349.866 145.258C349.958 145.48 350.094 145.682 350.264 145.851C350.434 146.021 350.636 146.155 350.859 146.247C351.081 146.339 351.319 146.385 351.56 146.385H367.263C367.748 146.385 368.214 146.193 368.558 145.85C368.901 145.508 369.095 145.043 369.097 144.557V128.847C369.096 128.361 368.902 127.896 368.558 127.552C368.215 127.208 367.749 127.015 367.263 127.013Z" fill="#2C28FF"/>
<path id="Vector_14" d="M367.263 153.785H351.56C351.073 153.785 350.607 153.978 350.263 154.322C349.919 154.666 349.726 155.132 349.726 155.619V171.329C349.726 171.569 349.774 171.807 349.866 172.029C349.958 172.251 350.094 172.453 350.264 172.623C350.434 172.792 350.636 172.927 350.859 173.018C351.081 173.11 351.319 173.157 351.56 173.156H367.263C367.748 173.156 368.214 172.964 368.558 172.621C368.901 172.279 369.095 171.814 369.097 171.329V155.619C369.096 155.133 368.902 154.667 368.558 154.323C368.215 153.98 367.749 153.786 367.263 153.785Z" fill="#2C28FF"/>
<path id="Vector_15" d="M367.263 180.556H351.56C351.073 180.556 350.607 180.75 350.263 181.093C349.919 181.437 349.726 181.904 349.726 182.39V198.093C349.725 198.334 349.772 198.573 349.864 198.796C349.956 199.018 350.092 199.221 350.262 199.391C350.432 199.561 350.635 199.697 350.857 199.789C351.08 199.881 351.319 199.928 351.56 199.927H367.263C367.749 199.927 368.216 199.734 368.56 199.39C368.903 199.046 369.097 198.58 369.097 198.093V182.39C369.096 181.904 368.902 181.438 368.558 181.095C368.215 180.751 367.749 180.557 367.263 180.556Z" fill="#777777"/>
<path id="Vector_16" d="M367.263 207.327H351.56C351.073 207.327 350.607 207.521 350.263 207.865C349.919 208.209 349.726 208.675 349.726 209.161V224.864C349.725 225.105 349.772 225.344 349.864 225.567C349.956 225.79 350.092 225.992 350.262 226.162C350.432 226.333 350.635 226.468 350.857 226.56C351.08 226.652 351.319 226.699 351.56 226.699H367.263C367.749 226.698 368.216 226.505 368.56 226.161C368.904 225.817 369.097 225.351 369.097 224.864V209.161C369.096 208.675 368.902 208.21 368.558 207.866C368.215 207.522 367.749 207.329 367.263 207.327Z" fill="#2C28FF"/>
<path id="Vector_17" d="M367.263 234.099H351.56C351.319 234.098 351.08 234.145 350.857 234.237C350.635 234.329 350.432 234.464 350.262 234.635C350.092 234.805 349.956 235.008 349.864 235.23C349.772 235.453 349.725 235.692 349.726 235.933V251.636C349.725 251.877 349.772 252.115 349.864 252.338C349.956 252.561 350.092 252.763 350.262 252.934C350.432 253.104 350.635 253.239 350.857 253.331C351.08 253.423 351.319 253.47 351.56 253.47H367.263C367.749 253.47 368.216 253.276 368.56 252.932C368.904 252.589 369.097 252.122 369.097 251.636V235.933C369.097 235.446 368.904 234.98 368.56 234.636C368.216 234.292 367.749 234.099 367.263 234.099Z" fill="#2C28FF"/>
<path id="Vector_18" d="M400.249 127.013H384.546C384.059 127.014 383.593 127.207 383.249 127.551C382.905 127.895 382.712 128.361 382.712 128.847V144.557C382.712 144.798 382.76 145.036 382.852 145.258C382.944 145.48 383.079 145.682 383.25 145.851C383.42 146.021 383.622 146.156 383.845 146.247C384.067 146.339 384.305 146.385 384.546 146.385H400.249C400.734 146.385 401.2 146.193 401.543 145.85C401.887 145.508 402.081 145.043 402.083 144.557V128.847C402.082 128.361 401.888 127.896 401.544 127.552C401.2 127.208 400.735 127.015 400.249 127.013Z" fill="#2C28FF"/>
<path id="Vector_19" d="M400.249 153.785H384.546C384.059 153.785 383.593 153.978 383.249 154.322C382.905 154.666 382.712 155.132 382.712 155.619V171.329C382.712 171.569 382.76 171.807 382.852 172.029C382.944 172.251 383.079 172.453 383.25 172.623C383.42 172.792 383.622 172.927 383.845 173.018C384.067 173.11 384.305 173.157 384.546 173.156H400.249C400.734 173.156 401.2 172.964 401.543 172.621C401.887 172.279 402.081 171.814 402.083 171.329V155.619C402.082 155.133 401.888 154.667 401.544 154.323C401.201 153.98 400.735 153.786 400.249 153.785Z" fill="#02005B"/>
<path id="Vector_20" d="M400.249 180.556H384.546C384.059 180.556 383.593 180.75 383.249 181.093C382.905 181.437 382.712 181.904 382.712 182.39V198.093C382.711 198.334 382.758 198.573 382.85 198.796C382.942 199.018 383.077 199.221 383.248 199.391C383.418 199.561 383.621 199.697 383.843 199.789C384.066 199.881 384.305 199.928 384.546 199.927H400.249C400.735 199.927 401.202 199.734 401.545 199.39C401.889 199.046 402.083 198.58 402.083 198.093V182.39C402.082 181.904 401.888 181.438 401.544 181.095C401.201 180.751 400.735 180.557 400.249 180.556Z" fill="#02005B"/>
<path id="Vector_21" d="M400.249 207.327H384.546C384.059 207.327 383.593 207.521 383.249 207.865C382.905 208.209 382.712 208.675 382.712 209.161V224.864C382.711 225.105 382.758 225.344 382.85 225.567C382.942 225.79 383.077 225.992 383.248 226.162C383.418 226.333 383.621 226.468 383.843 226.56C384.066 226.652 384.305 226.699 384.546 226.699H400.249C400.735 226.698 401.202 226.505 401.545 226.161C401.889 225.817 402.083 225.351 402.083 224.864V209.161C402.082 208.675 401.888 208.21 401.544 207.866C401.201 207.522 400.735 207.329 400.249 207.327Z" fill="#777777"/>
<path id="Vector_22" d="M400.249 234.099H384.546C384.305 234.098 384.066 234.145 383.843 234.237C383.621 234.329 383.418 234.464 383.248 234.635C383.077 234.805 382.942 235.008 382.85 235.23C382.758 235.453 382.711 235.692 382.712 235.933V251.636C382.711 251.877 382.758 252.115 382.85 252.338C382.942 252.561 383.077 252.763 383.248 252.934C383.418 253.104 383.621 253.239 383.843 253.331C384.066 253.423 384.305 253.47 384.546 253.47H400.249C400.735 253.47 401.202 253.276 401.546 252.932C401.889 252.589 402.083 252.122 402.083 251.636V235.933C402.083 235.446 401.889 234.98 401.545 234.636C401.202 234.292 400.735 234.099 400.249 234.099Z" fill="#2C28FF"/>
<path id="Vector_23" d="M433.235 127.013H417.525C417.04 127.015 416.575 127.209 416.232 127.553C415.89 127.897 415.698 128.362 415.698 128.847V144.557C415.698 145.042 415.89 145.507 416.233 145.849C416.576 146.192 417.04 146.384 417.525 146.385H433.235C433.72 146.385 434.186 146.193 434.53 145.85C434.873 145.508 435.067 145.043 435.069 144.557V128.847C435.068 128.361 434.874 127.896 434.53 127.552C434.187 127.208 433.721 127.015 433.235 127.013Z" fill="#02005B"/>
<path id="Vector_24" d="M433.235 153.785H417.525C417.04 153.786 416.575 153.98 416.232 154.324C415.89 154.668 415.698 155.134 415.698 155.619V171.329C415.698 171.813 415.89 172.278 416.233 172.621C416.576 172.963 417.04 173.156 417.525 173.156H433.235C433.72 173.156 434.186 172.964 434.53 172.621C434.873 172.279 435.067 171.814 435.069 171.329V155.619C435.068 155.133 434.874 154.667 434.53 154.323C434.187 153.98 433.721 153.786 433.235 153.785Z" fill="#02005B"/>
<path id="Vector_25" d="M433.235 180.556H417.525C417.04 180.558 416.575 180.752 416.232 181.095C415.89 181.439 415.698 181.905 415.698 182.39V198.093C415.697 198.334 415.744 198.572 415.835 198.794C415.927 199.017 416.061 199.219 416.231 199.389C416.401 199.559 416.602 199.695 416.824 199.787C417.046 199.879 417.284 199.927 417.525 199.927H433.235C433.721 199.927 434.188 199.734 434.532 199.39C434.876 199.046 435.069 198.58 435.069 198.093V182.39C435.068 181.904 434.874 181.438 434.53 181.095C434.187 180.751 433.721 180.557 433.235 180.556Z" fill="white"/>
<path id="Vector_26" d="M433.235 207.327H417.525C417.04 207.329 416.575 207.523 416.232 207.867C415.89 208.211 415.698 208.676 415.698 209.161V224.864C415.697 225.105 415.744 225.343 415.835 225.565C415.927 225.788 416.061 225.99 416.231 226.16C416.401 226.331 416.602 226.466 416.824 226.558C417.046 226.651 417.284 226.698 417.525 226.699H433.235C433.721 226.698 434.188 226.505 434.532 226.161C434.876 225.817 435.069 225.351 435.069 224.864V209.161C435.068 208.675 434.874 208.21 434.53 207.866C434.187 207.522 433.721 207.329 433.235 207.327Z" fill="#2C28FF"/>
<path id="Vector_27" d="M433.235 234.099H417.525C417.284 234.099 417.046 234.147 416.824 234.239C416.602 234.331 416.401 234.466 416.231 234.637C416.061 234.807 415.927 235.009 415.835 235.232C415.744 235.454 415.697 235.692 415.698 235.933V251.636C415.697 251.876 415.744 252.114 415.835 252.337C415.927 252.559 416.061 252.761 416.231 252.932C416.401 253.102 416.602 253.237 416.824 253.33C417.046 253.422 417.284 253.47 417.525 253.47H433.235C433.721 253.47 434.188 253.276 434.532 252.932C434.876 252.589 435.069 252.122 435.069 251.636V235.933C435.069 235.446 434.876 234.98 434.532 234.636C434.188 234.292 433.721 234.099 433.235 234.099Z" fill="#777777"/>
<path id="Vector_28" d="M466.221 127.013H450.511C450.026 127.015 449.561 127.209 449.219 127.553C448.876 127.897 448.684 128.362 448.684 128.847V144.557C448.684 145.042 448.877 145.507 449.219 145.849C449.562 146.192 450.027 146.384 450.511 146.385H466.221C466.707 146.385 467.172 146.193 467.516 145.85C467.86 145.508 468.054 145.043 468.055 144.557V128.847C468.054 128.361 467.86 127.896 467.517 127.552C467.173 127.208 466.707 127.015 466.221 127.013Z" fill="#02005B"/>
<path id="Vector_29" d="M466.221 153.785H450.511C450.026 153.786 449.561 153.98 449.219 154.324C448.876 154.668 448.684 155.134 448.684 155.619V171.329C448.684 171.813 448.877 172.278 449.219 172.621C449.562 172.963 450.027 173.156 450.511 173.156H466.221C466.707 173.156 467.172 172.964 467.516 172.621C467.86 172.279 468.054 171.814 468.055 171.329V155.619C468.054 155.133 467.86 154.667 467.517 154.323C467.173 153.98 466.707 153.786 466.221 153.785Z" fill="#02005B"/>
<path id="Vector_30" d="M466.221 180.556H450.511C450.026 180.558 449.561 180.752 449.219 181.095C448.876 181.439 448.684 181.905 448.684 182.39V198.093C448.683 198.334 448.73 198.572 448.822 198.794C448.913 199.017 449.048 199.219 449.217 199.389C449.387 199.559 449.589 199.695 449.811 199.787C450.033 199.879 450.271 199.927 450.511 199.927H466.221C466.708 199.927 467.174 199.734 467.518 199.39C467.862 199.046 468.055 198.58 468.055 198.093V182.39C468.054 181.904 467.86 181.438 467.517 181.095C467.173 180.751 466.707 180.557 466.221 180.556Z" fill="#2C28FF"/>
<path id="Vector_31" d="M466.221 207.327H450.511C450.026 207.329 449.561 207.523 449.219 207.867C448.876 208.211 448.684 208.676 448.684 209.161V224.864C448.683 225.105 448.73 225.343 448.822 225.565C448.913 225.788 449.048 225.99 449.217 226.16C449.387 226.331 449.589 226.466 449.811 226.558C450.033 226.651 450.271 226.698 450.511 226.699H466.221C466.708 226.698 467.174 226.505 467.518 226.161C467.862 225.817 468.055 225.351 468.055 224.864V209.161C468.054 208.675 467.86 208.21 467.517 207.866C467.173 207.522 466.707 207.329 466.221 207.327Z" fill="#777777"/>
<path id="Vector_32" d="M466.221 234.099H450.511C450.271 234.099 450.033 234.147 449.811 234.239C449.589 234.331 449.387 234.466 449.217 234.637C449.048 234.807 448.913 235.009 448.822 235.232C448.73 235.454 448.683 235.692 448.684 235.933V251.636C448.683 251.876 448.73 252.114 448.822 252.337C448.913 252.559 449.048 252.761 449.217 252.932C449.387 253.102 449.589 253.237 449.811 253.33C450.033 253.422 450.271 253.47 450.511 253.47H466.221C466.708 253.47 467.174 253.276 467.518 252.932C467.862 252.589 468.055 252.122 468.055 251.636V235.933C468.055 235.446 467.862 234.98 467.518 234.636C467.174 234.292 466.708 234.099 466.221 234.099Z" fill="#02005B"/>
<path id="Vector_33" d="M499.207 127.013H483.497C483.012 127.015 482.547 127.209 482.205 127.553C481.862 127.897 481.67 128.362 481.67 128.847V144.557C481.67 145.042 481.863 145.507 482.205 145.849C482.548 146.192 483.013 146.384 483.497 146.385H499.207C499.693 146.385 500.158 146.193 500.502 145.85C500.846 145.508 501.04 145.043 501.041 144.557V128.847C501.04 128.361 500.846 127.896 500.503 127.552C500.159 127.208 499.693 127.015 499.207 127.013Z" fill="#2C28FF"/>
<path id="Vector_34" d="M499.207 153.785H483.497C483.012 153.786 482.547 153.98 482.205 154.324C481.862 154.668 481.67 155.134 481.67 155.619V171.329C481.67 171.813 481.863 172.278 482.205 172.621C482.548 172.963 483.013 173.156 483.497 173.156H499.207C499.693 173.156 500.158 172.964 500.502 172.621C500.846 172.279 501.04 171.814 501.041 171.329V155.619C501.04 155.133 500.846 154.667 500.503 154.323C500.159 153.98 499.693 153.786 499.207 153.785Z" fill="#2C28FF"/>
<path id="Vector_35" d="M499.207 180.556H483.497C483.012 180.558 482.547 180.752 482.205 181.095C481.862 181.439 481.67 181.905 481.67 182.39V198.093C481.67 198.334 481.716 198.572 481.808 198.794C481.899 199.017 482.034 199.219 482.203 199.389C482.373 199.559 482.575 199.695 482.797 199.787C483.019 199.879 483.257 199.927 483.497 199.927H499.207C499.694 199.927 500.16 199.734 500.504 199.39C500.848 199.046 501.041 198.58 501.042 198.093V182.39C501.04 181.904 500.846 181.438 500.503 181.095C500.159 180.751 499.693 180.557 499.207 180.556Z" fill="#777777"/>
<path id="Vector_36" d="M499.207 207.327H483.497C483.012 207.329 482.547 207.523 482.205 207.867C481.862 208.211 481.67 208.676 481.67 209.161V224.864C481.669 225.105 481.716 225.343 481.808 225.565C481.899 225.788 482.034 225.99 482.203 226.16C482.373 226.331 482.575 226.466 482.797 226.558C483.019 226.651 483.257 226.698 483.497 226.699H499.207C499.694 226.698 500.16 226.505 500.504 226.161C500.848 225.817 501.041 225.351 501.042 224.864V209.161C501.04 208.675 500.846 208.21 500.503 207.866C500.159 207.522 499.693 207.329 499.207 207.327Z" fill="#02005B"/>
<path id="Vector_37" d="M499.207 234.099H483.497C483.257 234.099 483.019 234.147 482.797 234.239C482.575 234.331 482.373 234.466 482.203 234.637C482.034 234.807 481.899 235.009 481.808 235.232C481.716 235.454 481.669 235.692 481.67 235.933V251.636C481.669 251.876 481.716 252.114 481.808 252.337C481.899 252.559 482.034 252.761 482.203 252.932C482.373 253.102 482.575 253.237 482.797 253.33C483.019 253.422 483.257 253.47 483.497 253.47H499.207C499.694 253.47 500.16 253.276 500.504 252.932C500.848 252.589 501.041 252.122 501.042 251.636V235.933C501.041 235.446 500.848 234.98 500.504 234.636C500.16 234.292 499.694 234.099 499.207 234.099Z" fill="#2C28FF"/>
<path id="Vector_38" d="M532.194 127.013H516.484C515.998 127.015 515.534 127.209 515.191 127.553C514.849 127.897 514.656 128.362 514.656 128.847V144.557C514.657 145.042 514.849 145.507 515.192 145.849C515.534 146.192 515.999 146.384 516.484 146.385H532.194C532.679 146.385 533.144 146.193 533.488 145.85C533.832 145.508 534.026 145.043 534.028 144.557V128.847C534.026 128.361 533.833 127.896 533.489 127.552C533.145 127.208 532.68 127.015 532.194 127.013Z" fill="#2C28FF"/>
<path id="Vector_39" d="M532.194 153.785H516.484C515.998 153.786 515.533 153.98 515.191 154.324C514.849 154.668 514.656 155.134 514.656 155.619V171.329C514.657 171.813 514.849 172.278 515.192 172.621C515.534 172.963 515.999 173.156 516.484 173.156H532.194C532.679 173.156 533.144 172.964 533.488 172.621C533.832 172.279 534.026 171.814 534.028 171.329V155.619C534.026 155.133 533.833 154.667 533.489 154.323C533.145 153.98 532.68 153.786 532.194 153.785Z" fill="#2C28FF"/>
<path id="Vector_40" d="M532.194 180.556H516.484C515.998 180.558 515.533 180.752 515.191 181.095C514.849 181.439 514.656 181.905 514.657 182.39V198.093C514.656 198.334 514.703 198.572 514.794 198.794C514.886 199.017 515.02 199.219 515.19 199.389C515.359 199.559 515.561 199.695 515.783 199.787C516.005 199.879 516.243 199.927 516.484 199.927H532.194C532.68 199.927 533.146 199.734 533.49 199.39C533.834 199.046 534.028 198.58 534.028 198.093V182.39C534.026 181.904 533.833 181.438 533.489 181.095C533.145 180.751 532.68 180.557 532.194 180.556Z" fill="#777777"/>
<path id="Vector_41" d="M532.194 207.327H516.484C515.998 207.329 515.534 207.523 515.191 207.867C514.849 208.211 514.656 208.676 514.657 209.161V224.864C514.656 225.105 514.703 225.343 514.794 225.565C514.886 225.788 515.02 225.99 515.19 226.16C515.359 226.331 515.561 226.466 515.783 226.558C516.005 226.651 516.243 226.698 516.484 226.699H532.194C532.68 226.698 533.146 226.505 533.49 226.161C533.834 225.817 534.028 225.351 534.028 224.864V209.161C534.026 208.675 533.833 208.21 533.489 207.866C533.145 207.522 532.68 207.329 532.194 207.327Z" fill="#2C28FF"/>
<path id="Vector_42" d="M532.194 234.099H516.484C516.243 234.099 516.005 234.147 515.783 234.239C515.561 234.331 515.359 234.466 515.19 234.637C515.02 234.807 514.886 235.009 514.794 235.232C514.703 235.454 514.656 235.692 514.657 235.933V251.636C514.656 251.876 514.703 252.114 514.794 252.337C514.886 252.559 515.02 252.761 515.19 252.932C515.359 253.102 515.561 253.237 515.783 253.33C516.005 253.422 516.243 253.47 516.484 253.47H532.194C532.68 253.47 533.146 253.276 533.49 252.932C533.834 252.589 534.028 252.122 534.028 251.636V235.933C534.028 235.446 533.834 234.98 533.49 234.636C533.146 234.292 532.68 234.099 532.194 234.099Z" fill="#2C28FF"/>
<path id="Vector_43" d="M565.18 127.013H549.47C548.984 127.015 548.52 127.209 548.177 127.553C547.835 127.897 547.642 128.362 547.643 128.847V144.557C547.643 145.042 547.835 145.507 548.178 145.849C548.52 146.192 548.985 146.384 549.47 146.385H565.18C565.665 146.385 566.131 146.193 566.474 145.85C566.818 145.508 567.012 145.043 567.014 144.557V128.847C567.012 128.361 566.819 127.896 566.475 127.552C566.131 127.208 565.666 127.015 565.18 127.013Z" fill="#E6E6E6"/>
<path id="Vector_44" d="M565.18 153.785H549.47C548.984 153.786 548.52 153.98 548.177 154.324C547.835 154.668 547.642 155.134 547.643 155.619V171.329C547.643 171.813 547.835 172.278 548.178 172.621C548.52 172.963 548.985 173.156 549.47 173.156H565.18C565.665 173.156 566.131 172.964 566.474 172.621C566.818 172.279 567.012 171.814 567.014 171.329V155.619C567.012 155.133 566.819 154.667 566.475 154.323C566.131 153.98 565.666 153.786 565.18 153.785Z" fill="#2C28FF"/>
<path id="Vector_45" d="M565.18 180.556H549.47C548.984 180.558 548.52 180.752 548.177 181.095C547.835 181.439 547.642 181.905 547.643 182.39V198.093C547.642 198.334 547.689 198.572 547.78 198.794C547.872 199.017 548.006 199.219 548.176 199.389C548.345 199.559 548.547 199.695 548.769 199.787C548.991 199.879 549.229 199.927 549.47 199.927H565.18C565.666 199.927 566.132 199.734 566.476 199.39C566.82 199.046 567.014 198.58 567.014 198.093V182.39C567.012 181.904 566.819 181.438 566.475 181.095C566.131 180.751 565.666 180.557 565.18 180.556Z" fill="#2C28FF"/>
<path id="Vector_46" d="M565.18 207.327H549.47C548.984 207.329 548.52 207.523 548.177 207.867C547.835 208.211 547.642 208.676 547.643 209.161V224.864C547.642 225.105 547.689 225.343 547.78 225.565C547.872 225.788 548.006 225.99 548.176 226.16C548.345 226.331 548.547 226.466 548.769 226.558C548.991 226.651 549.229 226.698 549.47 226.699H565.18C565.666 226.698 566.132 226.505 566.476 226.161C566.82 225.817 567.014 225.351 567.014 224.864V209.161C567.012 208.675 566.819 208.21 566.475 207.866C566.131 207.522 565.666 207.329 565.18 207.327Z" fill="#2C28FF"/>
<path id="Vector_47" d="M565.18 234.099H549.47C549.229 234.099 548.991 234.147 548.769 234.239C548.547 234.331 548.345 234.466 548.176 234.637C548.006 234.807 547.872 235.009 547.78 235.232C547.689 235.454 547.642 235.692 547.643 235.933V251.636C547.642 251.876 547.689 252.114 547.78 252.337C547.872 252.559 548.006 252.761 548.176 252.932C548.345 253.102 548.547 253.237 548.769 253.33C548.991 253.422 549.229 253.47 549.47 253.47H565.18C565.666 253.47 566.132 253.276 566.476 252.932C566.82 252.589 567.014 252.122 567.014 251.636V235.933C567.014 235.446 566.82 234.98 566.476 234.636C566.132 234.292 565.666 234.099 565.18 234.099Z" fill="#E6E6E6"/>
<path id="Vector_48" d="M598.166 127.013H582.456C581.971 127.015 581.506 127.209 581.163 127.553C580.821 127.897 580.629 128.362 580.629 128.847V144.557C580.629 145.042 580.821 145.507 581.164 145.849C581.507 146.192 581.971 146.384 582.456 146.385H598.166C598.651 146.385 599.117 146.193 599.461 145.85C599.804 145.508 599.998 145.043 600 144.557V128.847C599.999 128.361 599.805 127.896 599.461 127.552C599.118 127.208 598.652 127.015 598.166 127.013Z" fill="#E6E6E6"/>
<path id="Vector_49" d="M598.166 153.785H582.456C581.971 153.786 581.506 153.98 581.163 154.324C580.821 154.668 580.629 155.134 580.629 155.619V171.329C580.629 171.813 580.821 172.278 581.164 172.621C581.507 172.963 581.971 173.156 582.456 173.156H598.166C598.651 173.156 599.117 172.964 599.461 172.621C599.804 172.279 599.998 171.814 600 171.329V155.619C599.999 155.133 599.805 154.667 599.461 154.323C599.118 153.98 598.652 153.786 598.166 153.785Z" fill="#E6E6E6"/>
<path id="Vector_50" d="M598.166 180.556H582.456C581.971 180.558 581.506 180.752 581.163 181.095C580.821 181.439 580.629 181.905 580.629 182.39V198.093C580.628 198.334 580.675 198.572 580.766 198.794C580.858 199.017 580.992 199.219 581.162 199.389C581.332 199.559 581.533 199.695 581.755 199.787C581.977 199.879 582.215 199.927 582.456 199.927H598.166C598.652 199.927 599.119 199.734 599.463 199.39C599.806 199.046 600 198.58 600 198.093V182.39C599.999 181.904 599.805 181.438 599.461 181.095C599.118 180.751 598.652 180.557 598.166 180.556Z" fill="#2C28FF"/>
<path id="Vector_51" d="M598.166 207.327H582.456C581.971 207.329 581.506 207.523 581.163 207.867C580.821 208.211 580.629 208.676 580.629 209.161V224.864C580.628 225.105 580.675 225.343 580.766 225.565C580.858 225.788 580.992 225.99 581.162 226.16C581.332 226.331 581.533 226.466 581.755 226.558C581.977 226.651 582.215 226.698 582.456 226.699H598.166C598.652 226.698 599.119 226.505 599.463 226.161C599.806 225.817 600 225.351 600 224.864V209.161C599.999 208.675 599.805 208.21 599.461 207.866C599.118 207.522 598.652 207.329 598.166 207.327Z" fill="#E6E6E6"/>
<path id="Vector_52" d="M598.166 234.099H582.456C582.215 234.099 581.977 234.147 581.755 234.239C581.533 234.331 581.332 234.466 581.162 234.637C580.992 234.807 580.858 235.009 580.766 235.232C580.675 235.454 580.628 235.692 580.629 235.933V251.636C580.628 251.876 580.675 252.114 580.766 252.337C580.858 252.559 580.992 252.761 581.162 252.932C581.332 253.102 581.533 253.237 581.755 253.33C581.977 253.422 582.215 253.47 582.456 253.47H598.166C598.652 253.47 599.119 253.276 599.463 252.932C599.806 252.589 600 252.122 600 251.636V235.933C600 235.446 599.806 234.98 599.463 234.636C599.119 234.292 598.652 234.099 598.166 234.099Z" fill="#E6E6E6"/>
<path id="Vector_53" d="M237.093 465.624H236.656L237.03 465.574L237.093 465.624Z" fill="#2F2E41"/>
<path id="ab6171fa-7d69-4734-b81c-8dff60f9761b" d="M199.507 172.87C226.126 172.87 247.704 151.292 247.704 124.674C247.704 98.0553 226.126 76.4769 199.507 76.4769C172.889 76.4769 151.311 98.0553 151.311 124.674C151.311 151.292 172.889 172.87 199.507 172.87Z" fill="#FFB6B6"/>
<path id="bf427902-b9bf-4946-b5d7-5c1c7e04535e" d="M241.715 89.3367C241.715 89.3367 254.32 65.2383 226.588 63.0475C226.588 63.0475 202.945 41.6007 178.847 59.1267C178.847 59.1267 165.702 59.1267 158.514 74.0013C158.514 74.0013 148.176 70.0805 145.904 80.5736C145.904 80.5736 138.339 102.481 145.904 122.198C153.469 141.915 155.982 144.106 155.982 144.106C155.982 144.106 143.551 102.768 173.808 100.577C204.065 98.3866 237.923 79.4782 240.444 103.577C242.966 127.675 246.76 133.612 246.76 133.612C246.76 133.612 270.709 99.1951 241.715 89.3367Z" fill="#2F2E41"/>
<path id="Vector_54" d="M324.182 243.453L324.026 244.271L322.284 253.47L310.242 317.1L309.53 320.846L308.034 328.768L305.988 339.575L301.452 363.525L300.154 370.389L299.668 372.964L299.498 373.867L298.151 380.97L297.742 383.115L294.454 407.474L291.583 428.7L301.191 438.308L295.463 444.036L291.703 465.573L291.71 465.623H138.257C132.049 461.602 125.931 457.456 119.902 453.186L121.164 443.733C121.164 443.733 125.51 426.852 123.683 424.834C121.863 422.817 117.87 419.212 117.87 419.212L122.9 407.474L123.598 405.844L122.427 381.556L122.399 380.97L122.011 372.964L121.961 371.934L121.884 370.389L120.395 339.575L120.367 339.067L119.916 329.727L119.492 320.846L119.309 317.1L117.496 279.62L116.269 254.168L115.196 232.01L119.506 230.55L165.607 214.882L184.703 190.058L224.447 190.354L243.903 190.503L276.367 220.611L283.753 224.138L283.81 224.166L289.107 226.698L302.539 233.111L316.739 239.897L324.026 243.375L324.182 243.453Z" fill="#CACACA"/>
<path id="Vector_55" d="M189.839 393.316C186.926 394.445 183.802 394.921 180.686 394.711C177.569 394.501 174.537 393.61 171.802 392.102C169.067 390.593 166.696 388.503 164.856 385.979C163.017 383.455 161.752 380.559 161.153 377.493L85.9828 366.829L112.114 337.27L179.491 351.929C184.707 351.263 189.987 352.534 194.328 355.501C198.67 358.468 201.773 362.925 203.048 368.026C204.324 373.128 203.684 378.52 201.249 383.181C198.814 387.842 194.755 391.449 189.839 393.316V393.316Z" fill="#FFB6B6"/>
<path id="Vector_56" d="M156.323 339.575C154.931 337.81 152.959 336.593 150.757 336.14L119.916 329.727L116.748 329.071C114.907 328.687 113.169 327.919 111.645 326.816C110.122 325.714 108.849 324.302 107.909 322.673C106.934 320.963 106.344 319.061 106.181 317.1C106.034 315.317 106.247 313.522 106.809 311.824L117.496 279.62L124.43 258.725C125.271 256.205 125.767 253.583 125.905 250.93C126.291 243.589 124.02 236.354 119.506 230.55C115.539 225.449 110.035 221.76 103.809 220.027C97.5835 218.295 90.9655 218.61 84.9329 220.928C84.7566 220.992 84.5732 221.062 84.3968 221.133C80.0706 222.86 76.2054 225.57 73.1066 229.048C70.0079 232.527 67.7606 236.678 66.5422 241.174L59.0082 268.58L43.4674 325.079C41.9117 330.739 41.5974 336.669 42.5461 342.463C43.4947 348.256 45.6838 353.776 48.9637 358.645C52.2435 363.514 56.5366 367.616 61.5491 370.672C66.5616 373.728 72.1752 375.665 78.0056 376.35L122.427 381.556L142.983 383.968C145.36 384.254 147.758 383.634 149.698 382.231C151.638 380.828 152.978 378.746 153.452 376.399C153.485 376.271 153.511 376.142 153.53 376.011L154.023 372.964L158.207 347.3L158.249 347.039C158.467 345.729 158.408 344.389 158.076 343.103C157.745 341.818 157.147 340.616 156.323 339.575Z" fill="#CACACA"/>
<path id="Vector_57" d="M237.72 394.139C240.762 394.845 243.922 394.876 246.978 394.229C250.034 393.582 252.91 392.272 255.405 390.393C257.9 388.514 259.952 386.111 261.418 383.352C262.883 380.594 263.726 377.548 263.887 374.429L336.803 353.27L306.764 327.692L242.128 351.706C236.87 351.782 231.822 353.785 227.942 357.335C224.062 360.884 221.619 365.734 221.076 370.964C220.532 376.195 221.927 381.443 224.994 385.714C228.062 389.986 232.589 392.983 237.72 394.139V394.139Z" fill="#FFB6B6"/>
<path id="Vector_58" d="M373.005 305.94L338.326 226.127C335.489 219.575 330.423 214.239 324.027 211.066C322.049 210.093 319.973 209.336 317.833 208.809C317.501 208.724 317.17 208.646 316.838 208.583C312.301 207.593 307.594 207.68 303.096 208.837C298.985 209.893 295.142 211.804 291.819 214.446C288.496 217.087 285.767 220.399 283.81 224.166C283.788 224.197 283.769 224.23 283.753 224.265C281.567 228.494 280.405 233.177 280.359 237.937C280.314 242.697 281.387 247.401 283.492 251.671L283.923 252.532L308.429 301.75C309.266 303.433 309.738 305.274 309.813 307.152C309.888 309.03 309.566 310.903 308.866 312.647C308.167 314.392 307.106 315.969 305.754 317.275C304.403 318.581 302.79 319.586 301.022 320.225L299.301 320.846L268.346 332.027C266.024 332.856 264.113 334.554 263.017 336.763C261.921 338.972 261.725 341.52 262.47 343.871L262.548 344.118L271.225 371.884C271.267 372.011 271.309 372.138 271.359 372.265C271.435 372.505 271.529 372.738 271.641 372.964C272.563 375.032 274.193 376.703 276.237 377.677C278.282 378.65 280.607 378.863 282.794 378.275L299.498 373.866L302.906 372.964L346.043 361.571C351.719 360.071 357.004 357.362 361.536 353.63C366.068 349.898 369.74 345.231 372.3 339.948C374.861 334.664 376.249 328.89 376.371 323.021C376.493 317.151 375.344 311.325 373.005 305.94L373.005 305.94Z" fill="#CACACA"/>
<path id="Vector_59" d="M31.6726 372.964C41.6689 385.156 52.4497 396.684 63.9463 407.473H382.782C385.854 407.478 388.798 408.701 390.97 410.874C393.141 413.047 394.362 415.992 394.365 419.064L394.824 499.857C414.438 490.846 432.807 479.339 449.474 465.623C454.102 461.82 458.586 457.853 462.927 453.722C465.77 451.027 468.544 448.266 471.251 445.44C491.542 424.302 507.973 399.772 519.799 372.964H31.6726Z" fill="#3F3D56"/>
<path id="Vector_60" d="M471.251 445.44C468.549 448.269 465.774 451.029 462.927 453.722H395.057V445.44H471.251Z" fill="white"/>
<path id="Vector_61" d="M323.547 180.556C323.212 179.937 322.715 179.42 322.111 179.06C321.506 178.7 320.815 178.51 320.111 178.51H88.8412C87.8044 178.513 86.8108 178.927 86.0783 179.66C85.3457 180.394 84.934 181.388 84.9331 182.425V320.846H324.026V182.425C324.03 181.771 323.865 181.127 323.547 180.556Z" fill="#3F3D56"/>
<path id="Vector_62" d="M84.7236 317.098V334.18C84.7236 334.888 84.8631 335.589 85.1341 336.243C85.4051 336.898 85.8022 337.492 86.303 337.993C86.8037 338.493 87.3981 338.891 88.0523 339.162C88.7066 339.433 89.4077 339.572 90.1159 339.572H178.364V373.282H177.191C177.099 373.282 177.008 373.301 176.923 373.336C176.838 373.371 176.761 373.422 176.696 373.488C176.631 373.553 176.579 373.63 176.544 373.715C176.509 373.8 176.491 373.891 176.491 373.983V376.328C176.491 376.42 176.509 376.511 176.544 376.596C176.579 376.681 176.631 376.758 176.696 376.823C176.761 376.888 176.838 376.94 176.923 376.975C177.008 377.01 177.099 377.028 177.191 377.028H231.974C232.066 377.028 232.157 377.01 232.242 376.975C232.327 376.94 232.405 376.888 232.47 376.823C232.535 376.758 232.586 376.681 232.621 376.596C232.657 376.511 232.675 376.42 232.675 376.328V373.983C232.675 373.891 232.657 373.8 232.621 373.715C232.586 373.63 232.535 373.553 232.47 373.488C232.405 373.422 232.327 373.371 232.242 373.336C232.157 373.301 232.066 373.282 231.974 373.282H230.802V339.572H319.05C319.758 339.572 320.459 339.433 321.113 339.162C321.767 338.891 322.362 338.493 322.863 337.993C323.363 337.492 323.76 336.898 324.031 336.243C324.302 335.589 324.442 334.888 324.442 334.18V317.098H84.7236Z" fill="#3F3D56"/>
<path id="Vector_63" d="M201.686 268.073C213.883 268.073 223.771 258.185 223.771 245.988C223.771 233.791 213.883 223.904 201.686 223.904C189.489 223.904 179.602 233.791 179.602 245.988C179.602 258.185 189.489 268.073 201.686 268.073Z" fill="#2C28FF"/>
<path id="Vector_64" d="M257.955 122.04H254.428C254.428 95.3746 228.038 77.901 201.415 77.8869C197.542 77.8756 193.678 78.2513 189.881 79.0085C185.606 79.8621 181.169 80.885 176.809 82.2182C159.617 87.4879 143.675 97.6743 143.675 122.04C143.671 126.772 144.273 131.485 145.466 136.064L142.052 136.953C140.786 132.083 140.146 127.072 140.147 122.04C140.147 100.75 148.888 86.1264 163.984 77.4072C171.92 72.8218 181.606 69.8661 192.702 68.427C197.32 67.8127 201.988 67.6708 206.635 68.0037C237.251 70.2047 257.955 93.6816 257.955 122.04Z" fill="#2C28FF"/>
<path id="Vector_65" d="M263.832 123.994L262.442 113.723C262.099 111.129 260.85 108.74 258.915 106.979C257.672 105.831 256.186 104.98 254.566 104.491C252.947 104.003 251.238 103.888 249.568 104.157L247.36 104.461C246.755 104.54 246.173 104.739 245.646 105.045C245.12 105.352 244.659 105.759 244.291 106.245C243.92 106.729 243.649 107.282 243.492 107.872C243.336 108.462 243.298 109.076 243.381 109.681L246.591 133.341C246.723 134.305 247.155 135.204 247.826 135.909C248.497 136.614 249.373 137.09 250.33 137.27C250.613 137.327 250.901 137.356 251.19 137.355C251.398 137.355 251.605 137.341 251.811 137.313L254.28 136.981C255.785 136.781 257.234 136.276 258.537 135.496C259.84 134.716 260.969 133.678 261.856 132.445C262.047 132.177 262.23 131.902 262.4 131.62C263.722 129.312 264.226 126.625 263.832 123.994Z" fill="#2C28FF"/>
<path id="Vector_66" d="M245.935 104.891C245.287 105.206 244.724 105.67 244.291 106.245C243.92 106.73 243.649 107.282 243.492 107.872C243.336 108.462 243.298 109.077 243.381 109.681L246.591 133.341C246.723 134.306 247.155 135.204 247.826 135.909C248.497 136.614 249.373 137.09 250.33 137.27L245.935 104.891Z" fill="white"/>
<path id="Vector_67" d="M263.831 123.994L262.442 113.723C262.099 111.129 260.849 108.74 258.915 106.979L262.11 130.519C262.158 130.897 262.255 131.267 262.399 131.62C263.722 129.312 264.226 126.625 263.831 123.994Z" fill="#3F3D56"/>
<path id="Vector_68" d="M252.848 131.395C253.813 131.264 254.299 128.967 253.932 126.264C253.565 123.562 252.486 121.477 251.521 121.608C250.555 121.739 250.07 124.036 250.437 126.738C250.803 129.441 251.883 131.526 252.848 131.395Z" fill="#3F3D56"/>
<path id="Vector_69" d="M250.732 118.697C251.697 118.566 252.182 116.269 251.816 113.567C251.449 110.864 250.369 108.779 249.404 108.91C248.439 109.041 247.954 111.338 248.32 114.041C248.687 116.743 249.767 118.828 250.732 118.697Z" fill="#3F3D56"/>
<path id="Vector_70" d="M264.135 123.635C265.1 123.504 265.586 121.207 265.219 118.505C264.852 115.802 263.773 113.717 262.808 113.848C261.842 113.979 261.357 116.276 261.724 118.979C262.09 121.681 263.17 123.766 264.135 123.635Z" fill="#3F3D56"/>
<path id="Vector_71" d="M201.415 77.8869C197.542 77.8756 193.678 78.2513 189.881 79.0085C185.606 79.8621 181.169 80.885 176.809 82.2182C170.002 81.8867 164.993 80.1231 163.984 77.4072C171.92 72.8218 181.606 69.8661 192.703 68.427C197.32 67.8127 201.988 67.6708 206.635 68.0037C207.127 68.2921 207.552 68.6813 207.883 69.1457C208.213 69.6102 208.442 70.1393 208.554 70.6985C208.885 73.1534 206.085 75.7635 201.415 77.8869Z" fill="#3F3D56"/>
<path id="Vector_72" d="M156.38 146.519L150.948 123.938C150.754 123.123 150.324 122.384 149.711 121.813C149.099 121.242 148.331 120.864 147.505 120.728C147.272 120.692 147.036 120.673 146.8 120.672C146.467 120.673 146.135 120.713 145.812 120.791L143.71 121.299C141.003 121.954 138.667 123.656 137.213 126.031C135.76 128.406 135.308 131.261 135.957 133.969L138.391 144.099C138.947 146.484 140.27 148.62 142.158 150.18C142.464 150.427 142.784 150.655 143.117 150.864C144.3 151.605 145.619 152.102 146.996 152.325C148.374 152.548 149.782 152.493 151.138 152.162L153.233 151.654C153.787 151.525 154.308 151.282 154.764 150.942C155.442 150.448 155.957 149.764 156.245 148.976C156.532 148.188 156.579 147.333 156.38 146.519Z" fill="#2C28FF"/>
<path id="Vector_73" d="M144.992 142.317C145.939 142.089 146.19 139.755 145.552 137.104C144.914 134.452 143.629 132.487 142.682 132.715C141.735 132.943 141.484 135.277 142.122 137.929C142.76 140.58 144.045 142.545 144.992 142.317Z" fill="#3F3D56"/>
<path id="Vector_74" d="M137.938 144.434C138.885 144.206 139.135 141.871 138.497 139.22C137.859 136.568 136.574 134.604 135.627 134.832C134.68 135.059 134.43 137.394 135.068 140.045C135.706 142.697 136.991 144.661 137.938 144.434Z" fill="#3F3D56"/>
<path id="Vector_75" d="M156.725 146.434L151.293 123.853C151.082 122.972 150.615 122.172 149.951 121.555C149.287 120.937 148.456 120.53 147.562 120.382L154.976 151.224C155.708 150.688 156.265 149.947 156.576 149.094C156.888 148.242 156.939 147.316 156.725 146.434Z" fill="white"/>
<path id="Vector_76" d="M137.185 129.497C137.035 128.869 136.753 128.28 136.359 127.768C135.596 129.746 135.455 131.91 135.957 133.969L138.391 144.099C138.947 146.484 140.27 148.62 142.158 150.18L137.185 129.497Z" fill="#3F3D56"/>
</g>
</svg>
