<svg width="417" height="357" viewBox="0 0 417 357" fill="none" xmlns="http://www.w3.org/2000/svg">
<path d="M368.77 185.395C368.824 229.477 351.785 271.862 321.236 303.642C319.394 305.57 317.503 307.452 315.562 309.287C312.604 312.1 309.548 314.804 306.391 317.399C276.867 341.724 240.009 355.393 201.763 356.201C200.489 356.23 199.21 356.244 197.926 356.244C167.424 356.244 129.06 339.952 94.2452 317.399C91.3647 315.534 88.51 313.625 85.6808 311.672C84.3584 310.768 83.0424 309.851 81.7329 308.922C68.3051 299.44 55.5595 289.028 43.5901 277.761C35.7533 270.406 28.4044 262.548 21.5902 254.237C-5.16071 221.239 -11.061 191.507 27.0769 185.395C31.5923 184.674 35.9747 183.903 40.224 183.082C46.3792 181.899 52.2699 180.622 57.896 179.25C65.4746 177.408 72.5947 175.411 79.2564 173.258C81.4973 172.537 83.6868 171.801 85.8251 171.051C117.438 159.947 138.596 145.468 152.998 129.758C155.441 127.099 157.693 124.408 159.754 121.684C162.908 117.539 165.773 113.182 168.328 108.643C171.855 102.337 174.818 95.7314 177.181 88.9034L177.311 88.5283C188.77 55.4732 185.284 24.8128 197.926 14.551C251.966 -29.319 319.245 33.1559 350.824 106.83C352.416 110.543 353.913 114.277 355.315 118.035C355.945 119.713 356.553 121.394 357.138 123.079C358.677 127.469 360.073 131.871 361.326 136.284C361.807 137.967 362.266 139.648 362.702 141.328C363.168 143.141 363.615 144.949 364.029 146.757C367.102 159.996 368.77 173.051 368.77 185.395Z" fill="#F2F2F2"/>
<path d="M201.763 356.201C200.489 356.23 199.21 356.244 197.926 356.244C167.424 356.244 129.06 339.952 94.2452 317.399C91.3648 315.534 88.51 313.625 85.6809 311.672L88.1622 296.573L163.279 286.6L200.98 315.428L201.763 356.201Z" fill="#2F2E41"/>
<path d="M161.619 317.4H161.321L161.575 317.366L161.619 317.4Z" fill="#2F2E41"/>
<path d="M135.998 117.84C154.142 117.84 168.852 103.131 168.852 84.9858C168.852 66.841 154.142 52.1318 135.998 52.1318C117.853 52.1318 103.144 66.841 103.144 84.9858C103.144 103.131 117.853 117.84 135.998 117.84Z" fill="#FFB6B6"/>
<path d="M164.769 60.8978C164.769 60.8978 173.362 44.4708 154.457 42.9774C154.457 42.9774 138.341 28.3578 121.914 40.3047C121.914 40.3047 112.954 40.3047 108.054 50.4442C108.054 50.4442 101.007 47.7715 99.4581 54.9243C99.4581 54.9243 94.3015 69.858 99.4581 83.2983C104.615 96.7387 106.328 98.232 106.328 98.232C106.328 98.232 97.8541 70.0537 118.479 68.5603C139.104 67.0669 162.184 54.1777 163.903 70.6047C165.622 87.0317 168.208 91.0792 168.208 91.0792C168.208 91.0792 184.534 67.618 164.769 60.8978Z" fill="#2F2E41"/>
<path d="M220.984 165.954L220.878 166.511L219.69 172.782L211.482 216.157L210.996 218.71L209.977 224.11L208.582 231.477L205.49 247.803L204.605 252.482L204.273 254.237L204.158 254.852L203.239 259.695L202.961 261.157L200.72 277.761L198.763 292.231L205.312 298.78L201.407 302.685L198.844 317.366L198.849 317.399H94.2451C90.0134 314.658 85.8426 311.832 81.7328 308.922L82.5935 302.478C82.5935 302.478 85.5557 290.971 84.3102 289.595C83.0696 288.22 80.3478 285.763 80.3478 285.763L83.7765 277.761L84.2525 276.65L83.4543 260.094L83.4351 259.695L83.1706 254.237L83.1369 253.535L83.084 252.482L82.0694 231.477L82.0501 231.131L81.7424 224.764L81.4539 218.71L81.3288 216.157L80.093 190.608L79.2563 173.258L78.5254 158.154L81.4635 157.158L112.889 146.478L125.906 129.556L152.998 129.758L166.261 129.859L188.39 150.383L193.425 152.787L193.463 152.806L197.075 154.533L206.231 158.904L215.911 163.53L220.878 165.901L220.984 165.954Z" fill="#CACACA"/>
<path d="M129.407 268.111C127.422 268.88 125.292 269.204 123.167 269.061C121.043 268.918 118.976 268.311 117.112 267.283C115.247 266.254 113.631 264.83 112.377 263.109C111.123 261.389 110.261 259.414 109.853 257.325L58.6116 250.055L76.4244 229.905L122.353 239.898C125.909 239.444 129.507 240.311 132.467 242.333C135.427 244.356 137.542 247.394 138.411 250.871C139.281 254.349 138.844 258.025 137.185 261.202C135.525 264.379 132.758 266.837 129.407 268.111V268.111Z" fill="#FFB6B6"/>
<path d="M106.56 231.477C105.611 230.274 104.267 229.444 102.766 229.135L81.7425 224.764L79.5834 224.317C78.3286 224.055 77.1433 223.531 76.105 222.78C75.0666 222.028 74.1987 221.066 73.558 219.955C72.8934 218.79 72.4913 217.494 72.3799 216.157C72.2797 214.941 72.4252 213.718 72.8078 212.56L80.0931 190.608L84.82 176.364C85.3929 174.647 85.731 172.859 85.8251 171.051C86.0884 166.046 84.5401 161.114 81.4635 157.158C78.7588 153.681 75.0073 151.166 70.7634 149.985C66.5195 148.804 62.0082 149.019 57.896 150.599C57.7758 150.643 57.6508 150.691 57.5305 150.739C54.5815 151.916 51.9467 153.764 49.8344 156.135C47.7221 158.506 46.1902 161.335 45.3597 164.4L40.224 183.082L29.6303 221.595C28.5699 225.454 28.3556 229.496 29.0023 233.445C29.6489 237.394 31.1412 241.157 33.377 244.476C35.6127 247.795 38.5392 250.592 41.956 252.675C45.3729 254.758 49.1994 256.078 53.1738 256.545L83.4543 260.094L97.4669 261.738C99.0873 261.933 100.722 261.51 102.044 260.554C103.367 259.598 104.28 258.178 104.603 256.579C104.626 256.492 104.643 256.403 104.656 256.314L104.993 254.237L107.844 236.743L107.873 236.565C108.022 235.672 107.982 234.758 107.755 233.882C107.529 233.006 107.122 232.187 106.56 231.477Z" fill="#CACACA"/>
<path d="M162.046 268.671C164.119 269.153 166.274 269.174 168.357 268.733C170.44 268.291 172.4 267.399 174.101 266.118C175.802 264.837 177.201 263.199 178.2 261.319C179.199 259.438 179.773 257.362 179.883 255.236L229.587 240.813L209.111 223.376L165.05 239.746C161.466 239.798 158.026 241.164 155.381 243.583C152.736 246.003 151.07 249.309 150.7 252.874C150.33 256.44 151.28 260.017 153.371 262.929C155.462 265.84 158.549 267.884 162.046 268.671V268.671Z" fill="#FFB6B6"/>
<path d="M21.5901 254.237C28.4043 262.548 35.7531 270.406 43.59 277.761H260.93C263.024 277.764 265.031 278.598 266.511 280.079C267.991 281.56 268.824 283.568 268.826 285.662L269.138 340.736C282.509 334.593 295.03 326.749 306.391 317.399C309.546 314.807 312.603 312.103 315.562 309.287C317.499 307.45 319.391 305.568 321.236 303.642C335.068 289.232 346.268 272.511 354.329 254.237H21.5901Z" fill="#3F3D56"/>
<path d="M321.236 303.642C319.394 305.57 317.503 307.452 315.562 309.287H269.297V303.642H321.236Z" fill="white"/>
<path d="M57.7532 216.155V227.799C57.7532 228.282 57.8482 228.76 58.033 229.206C58.2177 229.652 58.4884 230.057 58.8298 230.398C59.1711 230.74 59.5763 231.01 60.0222 231.195C60.4682 231.38 60.9462 231.475 61.4289 231.475H121.584V254.454H120.785C120.723 254.454 120.66 254.467 120.603 254.491C120.545 254.514 120.492 254.55 120.448 254.594C120.403 254.638 120.368 254.691 120.344 254.749C120.32 254.807 120.308 254.869 120.308 254.932V256.53C120.308 256.593 120.32 256.655 120.344 256.713C120.368 256.771 120.403 256.823 120.448 256.868C120.492 256.912 120.545 256.947 120.603 256.971C120.66 256.995 120.723 257.007 120.785 257.007H158.129C158.192 257.007 158.254 256.995 158.312 256.971C158.37 256.947 158.422 256.912 158.467 256.868C158.511 256.823 158.546 256.771 158.57 256.713C158.594 256.655 158.607 256.593 158.607 256.53V254.932C158.607 254.869 158.594 254.807 158.57 254.749C158.546 254.691 158.511 254.638 158.467 254.594C158.422 254.55 158.37 254.514 158.312 254.491C158.254 254.467 158.192 254.454 158.129 254.454H157.33V231.475H217.485C217.968 231.475 218.446 231.38 218.892 231.195C219.338 231.01 219.743 230.74 220.085 230.398C220.426 230.057 220.697 229.652 220.881 229.206C221.066 228.76 221.161 228.282 221.161 227.799V216.155H57.7532Z" fill="#3F3D56"/>
<path d="M137.483 182.736C145.797 182.736 152.537 175.996 152.537 167.682C152.537 159.368 145.797 152.628 137.483 152.628C129.169 152.628 122.428 159.368 122.428 167.682C122.428 175.996 129.169 182.736 137.483 182.736Z" fill="#2C28FF"/>
<path d="M175.84 83.1907H173.435C173.435 65.0137 155.446 53.1025 137.298 53.0929C134.658 53.0852 132.024 53.3413 129.435 53.8575C126.521 54.4393 123.497 55.1366 120.525 56.0454C108.806 59.6375 97.9383 66.5813 97.9383 83.1907C97.9358 86.4163 98.3463 89.629 99.1597 92.7504L96.8323 93.3563C95.969 90.0367 95.5327 86.6206 95.5339 83.1907C95.5339 68.6779 101.492 58.7095 111.783 52.7659C117.192 49.6402 123.795 47.6254 131.359 46.6444C134.507 46.2256 137.689 46.1289 140.856 46.3559C161.726 47.8562 175.84 63.8596 175.84 83.1907Z" fill="#2C28FF"/>
<path d="M179.845 84.5226L178.898 77.5211C178.664 75.753 177.812 74.1245 176.493 72.924C175.647 72.1413 174.633 71.5615 173.529 71.2283C172.425 70.895 171.26 70.8171 170.122 71.0005L168.617 71.2073C168.205 71.2615 167.808 71.3969 167.449 71.6058C167.09 71.8146 166.776 72.0927 166.525 72.4239C166.272 72.7539 166.087 73.1308 165.98 73.5328C165.874 73.9347 165.848 74.3537 165.905 74.7657L168.092 90.8942C168.183 91.5515 168.477 92.1639 168.935 92.6446C169.392 93.1253 169.989 93.4499 170.641 93.5726C170.834 93.6113 171.031 93.6307 171.228 93.6303C171.369 93.6303 171.511 93.6207 171.651 93.6015L173.334 93.3755C174.36 93.2393 175.348 92.8948 176.236 92.3631C177.124 91.8313 177.894 91.1236 178.499 90.2835C178.628 90.1007 178.753 89.9132 178.869 89.7208C179.77 88.1474 180.114 86.3158 179.845 84.5226Z" fill="#2C28FF"/>
<path d="M167.645 71.5007C167.204 71.7152 166.82 72.0316 166.525 72.4239C166.272 72.754 166.087 73.1309 165.98 73.5328C165.874 73.9348 165.848 74.3538 165.905 74.7658L168.092 90.8942C168.183 91.5516 168.477 92.164 168.935 92.6447C169.392 93.1253 169.989 93.45 170.641 93.5727L167.645 71.5007Z" fill="white"/>
<path d="M179.845 84.5226L178.898 77.5211C178.664 75.753 177.812 74.1245 176.493 72.924L178.672 88.9707C178.704 89.2283 178.771 89.4805 178.869 89.7209C179.77 88.1474 180.114 86.3159 179.845 84.5226V84.5226Z" fill="#3F3D56"/>
<path d="M172.358 89.5674C173.016 89.4781 173.347 87.9124 173.097 86.0702C172.847 84.228 172.111 82.807 171.453 82.8963C170.795 82.9855 170.465 84.5512 170.714 86.3934C170.964 88.2356 171.7 89.6566 172.358 89.5674Z" fill="#3F3D56"/>
<path d="M170.916 80.9117C171.574 80.8224 171.904 79.2567 171.654 77.4145C171.404 75.5723 170.669 74.1513 170.011 74.2406C169.353 74.3298 169.022 75.8955 169.272 77.7377C169.522 79.5799 170.258 81.0009 170.916 80.9117Z" fill="#3F3D56"/>
<path d="M180.052 84.2777C180.71 84.1885 181.041 82.6228 180.791 80.7806C180.541 78.9384 179.805 77.5174 179.147 77.6066C178.489 77.6959 178.159 79.2616 178.409 81.1038C178.658 82.946 179.394 84.367 180.052 84.2777Z" fill="#3F3D56"/>
<path d="M137.298 53.0929C134.658 53.0852 132.024 53.3413 129.436 53.8575C126.521 54.4393 123.497 55.1366 120.525 56.0454C115.885 55.8194 112.47 54.6172 111.783 52.7659C117.193 49.6402 123.795 47.6254 131.359 46.6444C134.507 46.2256 137.689 46.1289 140.856 46.3559C141.192 46.5524 141.481 46.8177 141.707 47.1343C141.932 47.4509 142.088 47.8116 142.164 48.1928C142.39 49.8662 140.481 51.6454 137.298 53.0929Z" fill="#3F3D56"/>
<path d="M106.599 99.8769L102.896 84.4842C102.764 83.9289 102.471 83.4249 102.053 83.0357C101.636 82.6464 101.113 82.3891 100.549 82.2963C100.39 82.2715 100.23 82.2586 100.069 82.2578C99.8418 82.2586 99.6158 82.286 99.3954 82.3395L97.9624 82.6858C96.1174 83.132 94.5247 84.2919 93.5339 85.9111C92.5432 87.5302 92.2352 89.4763 92.6776 91.3222L94.3366 98.2275C94.7154 99.8532 95.6176 101.31 96.9045 102.373C97.113 102.541 97.3314 102.697 97.5585 102.839C98.3645 103.344 99.2636 103.683 100.203 103.835C101.142 103.987 102.102 103.949 103.026 103.724L104.454 103.378C104.832 103.29 105.187 103.124 105.498 102.892C105.96 102.555 106.311 102.089 106.507 101.552C106.703 101.015 106.735 100.432 106.599 99.8769Z" fill="#2C28FF"/>
<path d="M98.8364 97.0129C99.482 96.8576 99.6527 95.2664 99.2177 93.459C98.7828 91.6515 97.9069 90.3122 97.2613 90.4675C96.6158 90.6229 96.4451 92.214 96.8801 94.0215C97.315 95.8289 98.1909 97.1682 98.8364 97.0129Z" fill="#3F3D56"/>
<path d="M94.0276 98.4555C94.6731 98.3002 94.8438 96.709 94.4089 94.9016C93.9739 93.0941 93.098 91.7548 92.4525 91.9101C91.807 92.0655 91.6363 93.6566 92.0712 95.4641C92.5062 97.2715 93.3821 98.6108 94.0276 98.4555Z" fill="#3F3D56"/>
<path d="M106.834 99.8192L103.132 84.4264C102.987 83.8256 102.669 83.2806 102.217 82.8598C101.764 82.439 101.198 82.1609 100.588 82.0605L105.642 103.084C106.141 102.719 106.521 102.214 106.733 101.632C106.945 101.051 106.98 100.42 106.834 99.8192V99.8192Z" fill="white"/>
<path d="M93.5143 88.2735C93.4121 87.8455 93.2203 87.4439 92.9517 87.0954C92.4312 88.4434 92.3355 89.9183 92.6776 91.3222L94.3366 98.2276C94.7154 99.8532 95.6175 101.31 96.9044 102.373L93.5143 88.2735Z" fill="#3F3D56"/>
<g filter="url(#filter0_d_681_659)">
<path d="M205.379 86.5808H194.675C194.344 86.5809 194.026 86.7127 193.791 86.9471C193.557 87.1815 193.425 87.4994 193.425 87.831V98.54C193.425 98.7039 193.458 98.8662 193.521 99.0175C193.584 99.1689 193.676 99.3063 193.792 99.422C193.908 99.5377 194.046 99.6293 194.197 99.6917C194.349 99.7541 194.511 99.786 194.675 99.7855H205.379C205.71 99.7856 206.028 99.6546 206.262 99.4211C206.496 99.1877 206.629 98.8708 206.63 98.54V87.831C206.629 87.4997 206.497 87.1822 206.262 86.948C206.028 86.7137 205.711 86.5817 205.379 86.5808V86.5808Z" fill="#02005B"/>
</g>
<g filter="url(#filter1_d_681_659)">
<path d="M272.836 104.83H262.132C261.8 104.83 261.482 104.962 261.248 105.196C261.014 105.431 260.882 105.749 260.882 106.08V116.789C260.882 116.953 260.914 117.115 260.977 117.267C261.04 117.418 261.132 117.555 261.248 117.671C261.365 117.787 261.502 117.878 261.654 117.941C261.806 118.003 261.968 118.035 262.132 118.035H272.836C273.167 118.035 273.484 117.904 273.719 117.67C273.953 117.437 274.085 117.12 274.086 116.789V106.08C274.085 105.749 273.953 105.431 273.719 105.197C273.485 104.963 273.167 104.831 272.836 104.83V104.83Z" fill="#02005B"/>
</g>
<g filter="url(#filter2_d_681_659)">
<path d="M272.836 123.079H262.132C261.8 123.079 261.482 123.211 261.248 123.445C261.014 123.68 260.882 123.998 260.882 124.329V135.033C260.881 135.198 260.913 135.36 260.976 135.512C261.039 135.664 261.131 135.802 261.247 135.918C261.363 136.034 261.501 136.126 261.653 136.189C261.805 136.252 261.968 136.284 262.132 136.284H272.836C273.168 136.284 273.486 136.152 273.72 135.917C273.954 135.683 274.086 135.365 274.086 135.033V124.329C274.085 123.998 273.953 123.68 273.719 123.446C273.485 123.212 273.167 123.08 272.836 123.079V123.079Z" fill="#02005B"/>
</g>
<g filter="url(#filter3_d_681_659)">
<path d="M295.322 86.5808H284.613C284.282 86.5819 283.965 86.7142 283.732 86.9485C283.498 87.1829 283.367 87.5002 283.367 87.831V98.54C283.367 98.8703 283.499 99.1871 283.732 99.4206C283.966 99.6542 284.282 99.7854 284.613 99.7855H295.322C295.652 99.7856 295.97 99.6546 296.204 99.4211C296.439 99.1877 296.571 98.8708 296.572 98.54V87.831C296.571 87.4997 296.439 87.1822 296.205 86.948C295.97 86.7137 295.653 86.5817 295.322 86.5808Z" fill="#02005B"/>
</g>
<g filter="url(#filter4_d_681_659)">
<path d="M295.322 104.83H284.613C284.282 104.831 283.965 104.963 283.732 105.198C283.498 105.432 283.367 105.749 283.367 106.08V116.789C283.367 117.119 283.499 117.436 283.732 117.67C283.966 117.903 284.282 118.035 284.613 118.035H295.322C295.652 118.035 295.97 117.904 296.204 117.67C296.439 117.437 296.571 117.12 296.572 116.789V106.08C296.571 105.749 296.439 105.431 296.205 105.197C295.97 104.963 295.653 104.831 295.322 104.83V104.83Z" fill="#02005B"/>
</g>
<g filter="url(#filter5_d_681_659)">
<path d="M317.808 86.5808H307.098C306.768 86.5819 306.451 86.7142 306.217 86.9485C305.984 87.1829 305.853 87.5002 305.853 87.831V98.54C305.853 98.8703 305.984 99.1871 306.218 99.4206C306.451 99.6542 306.768 99.7854 307.098 99.7855H317.808C318.138 99.7856 318.456 99.6546 318.69 99.4211C318.924 99.1876 319.057 98.8708 319.058 98.54V87.831C319.057 87.4997 318.925 87.1823 318.691 86.948C318.456 86.7138 318.139 86.5817 317.808 86.5808V86.5808Z" fill="#02005B"/>
</g>
<g filter="url(#filter6_d_681_659)">
<path d="M317.808 104.83H307.098C306.768 104.831 306.451 104.963 306.217 105.198C305.984 105.432 305.853 105.749 305.853 106.08V116.789C305.853 117.119 305.984 117.436 306.218 117.67C306.451 117.903 306.768 118.035 307.098 118.035H317.808C318.138 118.035 318.456 117.904 318.69 117.67C318.924 117.437 319.057 117.12 319.058 116.789V106.08C319.057 105.749 318.925 105.431 318.691 105.197C318.456 104.963 318.139 104.831 317.808 104.83V104.83Z" fill="#02005B"/>
</g>
<g filter="url(#filter7_d_681_659)">
<path d="M317.808 159.577H307.099C306.935 159.577 306.772 159.61 306.621 159.673C306.47 159.736 306.332 159.828 306.217 159.944C306.101 160.06 306.009 160.198 305.947 160.35C305.884 160.501 305.853 160.664 305.853 160.827V171.532C305.853 171.696 305.884 171.858 305.947 172.01C306.009 172.161 306.101 172.299 306.217 172.415C306.332 172.531 306.47 172.623 306.621 172.686C306.772 172.749 306.935 172.782 307.099 172.782H317.808C318.139 172.782 318.457 172.65 318.691 172.416C318.926 172.181 319.058 171.863 319.058 171.532V160.827C319.058 160.496 318.926 160.178 318.691 159.944C318.457 159.709 318.139 159.577 317.808 159.577Z" fill="#02005B"/>
</g>
<g filter="url(#filter8_d_681_659)">
<path d="M340.293 141.328H329.584C329.253 141.329 328.936 141.461 328.703 141.696C328.469 141.93 328.338 142.248 328.338 142.578V153.283C328.338 153.446 328.37 153.609 328.432 153.76C328.495 153.912 328.586 154.05 328.702 154.166C328.818 154.282 328.955 154.374 329.106 154.437C329.258 154.5 329.42 154.533 329.584 154.533H340.293C340.624 154.533 340.942 154.401 341.177 154.166C341.411 153.932 341.543 153.614 341.543 153.283V142.578C341.542 142.247 341.41 141.93 341.176 141.695C340.942 141.461 340.624 141.329 340.293 141.328V141.328Z" fill="#02005B"/>
</g>
<g filter="url(#filter9_d_681_659)">
<path d="M250.351 123.079H239.647C239.315 123.079 238.997 123.211 238.763 123.445C238.528 123.68 238.397 123.998 238.396 124.329V135.033C238.396 135.198 238.428 135.36 238.491 135.512C238.554 135.664 238.646 135.802 238.762 135.918C238.878 136.034 239.016 136.126 239.168 136.189C239.32 136.252 239.482 136.284 239.647 136.284H250.351C250.682 136.284 251 136.152 251.235 135.917C251.469 135.683 251.601 135.365 251.601 135.033V124.329C251.6 123.998 251.468 123.68 251.234 123.446C251 123.212 250.682 123.08 250.351 123.079V123.079Z" fill="#777777"/>
</g>
<g filter="url(#filter10_d_681_659)">
<path d="M272.836 141.328H262.132C261.8 141.328 261.482 141.46 261.248 141.694C261.014 141.929 260.882 142.247 260.882 142.578V153.283C260.881 153.447 260.913 153.61 260.976 153.761C261.039 153.913 261.131 154.051 261.247 154.167C261.363 154.284 261.501 154.376 261.653 154.438C261.805 154.501 261.968 154.533 262.132 154.533H272.836C273.168 154.533 273.486 154.401 273.72 154.166C273.954 153.932 274.086 153.614 274.086 153.283V142.578C274.085 142.247 273.953 141.93 273.719 141.695C273.485 141.461 273.167 141.329 272.836 141.328V141.328Z" fill="#777777"/>
</g>
<g filter="url(#filter11_d_681_659)">
<path d="M295.322 159.577H284.613C284.449 159.577 284.286 159.61 284.135 159.673C283.984 159.736 283.846 159.828 283.731 159.944C283.615 160.06 283.523 160.198 283.461 160.35C283.399 160.501 283.367 160.664 283.367 160.827V171.532C283.367 171.696 283.399 171.858 283.461 172.01C283.523 172.161 283.615 172.299 283.731 172.415C283.846 172.531 283.984 172.623 284.135 172.686C284.286 172.749 284.449 172.782 284.613 172.782H295.322C295.653 172.782 295.971 172.65 296.206 172.416C296.44 172.181 296.572 171.863 296.572 171.532V160.827C296.572 160.496 296.44 160.178 296.206 159.944C295.971 159.709 295.653 159.577 295.322 159.577V159.577Z" fill="#777777"/>
</g>
<g filter="url(#filter12_d_681_659)">
<path d="M317.808 141.328H307.099C306.768 141.329 306.451 141.461 306.217 141.696C305.984 141.93 305.853 142.248 305.853 142.578V153.283C305.853 153.446 305.884 153.609 305.947 153.76C306.009 153.912 306.101 154.05 306.217 154.166C306.332 154.282 306.47 154.374 306.621 154.437C306.772 154.5 306.935 154.533 307.099 154.533H317.808C318.139 154.533 318.457 154.401 318.691 154.166C318.926 153.932 319.058 153.614 319.058 153.283V142.578C319.057 142.247 318.925 141.93 318.691 141.695C318.456 141.461 318.139 141.329 317.808 141.328V141.328Z" fill="#777777"/>
</g>
<g filter="url(#filter13_d_681_659)">
<path d="M340.293 123.079H329.584C329.253 123.08 328.936 123.212 328.703 123.447C328.469 123.681 328.338 123.998 328.338 124.329V135.033C328.338 135.197 328.37 135.36 328.432 135.511C328.495 135.663 328.586 135.801 328.702 135.917C328.818 136.033 328.955 136.125 329.106 136.188C329.258 136.251 329.42 136.284 329.584 136.284H340.293C340.624 136.284 340.942 136.152 341.177 135.917C341.411 135.683 341.543 135.365 341.543 135.033V124.329C341.542 123.998 341.41 123.681 341.176 123.446C340.942 123.212 340.624 123.08 340.293 123.079V123.079Z" fill="#777777"/>
</g>
<g filter="url(#filter14_d_681_659)">
<path d="M340.293 159.577H329.584C329.42 159.577 329.258 159.61 329.106 159.673C328.955 159.736 328.818 159.828 328.702 159.944C328.586 160.06 328.495 160.198 328.432 160.35C328.37 160.501 328.338 160.664 328.338 160.827V171.532C328.338 171.696 328.37 171.858 328.432 172.01C328.495 172.161 328.586 172.299 328.702 172.415C328.818 172.531 328.955 172.623 329.106 172.686C329.258 172.749 329.42 172.782 329.584 172.782H340.293C340.624 172.782 340.942 172.65 341.177 172.416C341.411 172.181 341.543 171.863 341.543 171.532V160.827C341.543 160.496 341.411 160.178 341.177 159.944C340.942 159.709 340.624 159.577 340.293 159.577Z" fill="#777777"/>
</g>
<g filter="url(#filter15_d_681_659)">
<path d="M362.778 123.079H352.069C351.738 123.08 351.422 123.212 351.188 123.447C350.955 123.681 350.824 123.998 350.824 124.329V135.033C350.823 135.197 350.855 135.36 350.918 135.511C350.98 135.663 351.072 135.801 351.187 135.917C351.303 136.033 351.44 136.125 351.592 136.188C351.743 136.251 351.905 136.284 352.069 136.284H362.778C363.11 136.284 363.428 136.152 363.662 135.917C363.897 135.683 364.028 135.365 364.028 135.033V124.329C364.028 123.998 363.895 123.681 363.661 123.446C363.427 123.212 363.11 123.08 362.778 123.079Z" fill="#777777"/>
</g>
<g filter="url(#filter16_d_681_659)">
<path d="M362.778 141.328H352.069C351.738 141.329 351.422 141.461 351.188 141.696C350.955 141.93 350.824 142.248 350.824 142.578V153.283C350.823 153.446 350.855 153.609 350.918 153.76C350.98 153.912 351.072 154.05 351.187 154.166C351.303 154.282 351.44 154.374 351.592 154.437C351.743 154.5 351.905 154.533 352.069 154.533H362.778C363.11 154.533 363.428 154.401 363.662 154.166C363.897 153.932 364.028 153.614 364.028 153.283V142.578C364.028 142.247 363.895 141.93 363.661 141.695C363.427 141.461 363.11 141.329 362.778 141.328V141.328Z" fill="#777777"/>
</g>
<g filter="url(#filter17_d_681_659)">
<path d="M362.778 159.577H352.069C351.905 159.577 351.743 159.61 351.592 159.673C351.44 159.736 351.303 159.828 351.187 159.944C351.072 160.06 350.98 160.198 350.918 160.35C350.855 160.501 350.823 160.664 350.824 160.827V171.532C350.823 171.696 350.855 171.858 350.918 172.01C350.98 172.161 351.072 172.299 351.187 172.415C351.303 172.531 351.44 172.623 351.592 172.686C351.743 172.749 351.905 172.782 352.069 172.782H362.778C363.11 172.782 363.428 172.65 363.662 172.416C363.897 172.181 364.028 171.863 364.028 171.532V160.827C364.028 160.496 363.897 160.178 363.662 159.944C363.428 159.709 363.11 159.577 362.778 159.577V159.577Z" fill="#777777"/>
</g>
<g filter="url(#filter18_d_681_659)">
<path d="M385.264 141.328H374.555C374.224 141.329 373.907 141.461 373.674 141.696C373.44 141.93 373.309 142.248 373.31 142.578V153.283C373.309 153.446 373.341 153.609 373.403 153.76C373.466 153.912 373.557 154.05 373.673 154.166C373.789 154.282 373.926 154.374 374.077 154.437C374.229 154.5 374.391 154.533 374.555 154.533H385.264C385.596 154.533 385.914 154.401 386.148 154.166C386.382 153.932 386.514 153.614 386.514 153.283V142.578C386.513 142.247 386.381 141.93 386.147 141.695C385.913 141.461 385.595 141.329 385.264 141.328V141.328Z" fill="#777777"/>
</g>
<g filter="url(#filter19_d_681_659)">
<path d="M227.865 104.83H217.161C216.829 104.83 216.511 104.962 216.277 105.196C216.043 105.431 215.911 105.749 215.911 106.08V116.789C215.911 116.953 215.943 117.115 216.006 117.267C216.069 117.418 216.161 117.555 216.277 117.671C216.394 117.787 216.531 117.878 216.683 117.941C216.835 118.003 216.997 118.035 217.161 118.035H227.865C228.196 118.035 228.513 117.904 228.748 117.67C228.982 117.437 229.114 117.12 229.115 116.789V106.08C229.114 105.749 228.982 105.431 228.748 105.197C228.514 104.963 228.196 104.831 227.865 104.83Z" fill="#2C28FF"/>
</g>
<g filter="url(#filter20_d_681_659)">
<path d="M227.865 123.079H217.161C216.829 123.079 216.511 123.211 216.277 123.445C216.043 123.68 215.911 123.998 215.911 124.329V135.033C215.91 135.198 215.942 135.36 216.005 135.512C216.068 135.664 216.16 135.802 216.276 135.918C216.392 136.034 216.53 136.126 216.682 136.189C216.834 136.252 216.997 136.284 217.161 136.284H227.865C228.197 136.284 228.515 136.152 228.749 135.917C228.983 135.683 229.115 135.365 229.115 135.033V124.329C229.114 123.998 228.982 123.68 228.748 123.446C228.514 123.212 228.196 123.08 227.865 123.079V123.079Z" fill="#2C28FF"/>
</g>
<g filter="url(#filter21_d_681_659)">
<path d="M227.865 141.328H217.161C216.899 141.328 216.643 141.411 216.431 141.565C216.219 141.718 216.06 141.935 215.978 142.184C215.933 142.311 215.911 142.444 215.911 142.578V153.283C215.91 153.447 215.942 153.61 216.005 153.761C216.068 153.913 216.16 154.051 216.276 154.167C216.392 154.284 216.53 154.376 216.682 154.438C216.834 154.501 216.997 154.533 217.161 154.533H227.865C228.197 154.533 228.515 154.401 228.749 154.166C228.983 153.932 229.115 153.614 229.115 153.283V142.578C229.114 142.247 228.982 141.93 228.748 141.695C228.514 141.461 228.196 141.329 227.865 141.328V141.328Z" fill="#2C28FF"/>
</g>
<g filter="url(#filter22_d_681_659)">
<path d="M250.351 86.5808H239.647C239.315 86.5809 238.997 86.7127 238.763 86.9471C238.528 87.1815 238.397 87.4994 238.396 87.831V98.54C238.397 98.7039 238.429 98.8662 238.492 99.0175C238.555 99.1689 238.647 99.3063 238.763 99.422C238.879 99.5377 239.017 99.6293 239.169 99.6917C239.32 99.7541 239.483 99.786 239.647 99.7855H250.351C250.682 99.7856 250.999 99.6546 251.233 99.4211C251.468 99.1877 251.6 98.8708 251.601 98.54V87.831C251.6 87.4997 251.468 87.1822 251.234 86.948C251 86.7137 250.682 86.5817 250.351 86.5808V86.5808Z" fill="#2C28FF"/>
</g>
<g filter="url(#filter23_d_681_659)">
<path d="M250.351 104.83H239.647C239.315 104.83 238.997 104.962 238.763 105.196C238.528 105.431 238.397 105.749 238.396 106.08V116.789C238.397 116.953 238.429 117.115 238.492 117.267C238.555 117.418 238.647 117.555 238.763 117.671C238.879 117.787 239.017 117.878 239.169 117.941C239.32 118.003 239.483 118.035 239.647 118.035H250.351C250.682 118.035 250.999 117.904 251.233 117.67C251.468 117.437 251.6 117.12 251.601 116.789V106.08C251.6 105.749 251.468 105.431 251.234 105.197C251 104.963 250.682 104.831 250.351 104.83Z" fill="#2C28FF"/>
</g>
<g filter="url(#filter24_d_681_659)">
<path d="M250.351 141.328H239.647C239.315 141.328 238.997 141.46 238.763 141.694C238.528 141.929 238.397 142.247 238.396 142.578V153.283C238.396 153.447 238.428 153.61 238.491 153.761C238.554 153.913 238.646 154.051 238.762 154.167C238.878 154.284 239.016 154.376 239.168 154.438C239.32 154.501 239.482 154.533 239.647 154.533H250.351C250.682 154.533 251 154.401 251.235 154.166C251.469 153.932 251.601 153.614 251.601 153.283V142.578C251.6 142.247 251.468 141.93 251.234 141.695C251 141.461 250.682 141.329 250.351 141.328V141.328Z" fill="#2C28FF"/>
</g>
<g filter="url(#filter25_d_681_659)">
<path d="M250.351 159.577H239.647C239.482 159.577 239.32 159.609 239.168 159.672C239.016 159.734 238.878 159.827 238.762 159.943C238.646 160.059 238.554 160.197 238.491 160.349C238.428 160.5 238.396 160.663 238.396 160.827V171.532C238.396 171.696 238.428 171.859 238.491 172.011C238.554 172.162 238.646 172.3 238.762 172.417C238.878 172.533 239.016 172.625 239.168 172.687C239.32 172.75 239.482 172.782 239.647 172.782H250.351C250.682 172.782 251 172.65 251.235 172.416C251.469 172.181 251.601 171.863 251.601 171.532V160.827C251.601 160.496 251.469 160.178 251.235 159.944C251 159.709 250.682 159.577 250.351 159.577V159.577Z" fill="#2C28FF"/>
</g>
<g filter="url(#filter26_d_681_659)">
<path d="M272.836 86.5808H262.132C261.8 86.5809 261.482 86.7127 261.248 86.9471C261.014 87.1815 260.882 87.4994 260.882 87.831V98.54C260.882 98.7039 260.914 98.8662 260.977 99.0175C261.04 99.1689 261.132 99.3063 261.248 99.422C261.365 99.5377 261.502 99.6294 261.654 99.6917C261.806 99.7541 261.968 99.786 262.132 99.7855H272.836C273.167 99.7856 273.484 99.6546 273.719 99.4211C273.953 99.1877 274.085 98.8708 274.086 98.54V87.831C274.085 87.4997 273.953 87.1822 273.719 86.948C273.485 86.7137 273.167 86.5817 272.836 86.5808V86.5808Z" fill="#2C28FF"/>
</g>
<g filter="url(#filter27_d_681_659)">
<path d="M272.836 159.577H262.132C261.968 159.577 261.805 159.609 261.653 159.672C261.501 159.734 261.363 159.827 261.247 159.943C261.131 160.059 261.039 160.197 260.976 160.349C260.913 160.5 260.881 160.663 260.882 160.827V171.532C260.881 171.696 260.913 171.859 260.976 172.011C261.039 172.162 261.131 172.3 261.247 172.417C261.363 172.533 261.501 172.625 261.653 172.687C261.805 172.75 261.968 172.782 262.132 172.782H272.836C273.168 172.782 273.486 172.65 273.72 172.416C273.954 172.181 274.086 171.863 274.086 171.532V160.827C274.086 160.496 273.954 160.178 273.72 159.944C273.486 159.709 273.168 159.577 272.836 159.577V159.577Z" fill="#2C28FF"/>
</g>
<g filter="url(#filter28_d_681_659)">
<path d="M295.322 141.328H284.613C284.282 141.329 283.965 141.461 283.732 141.696C283.498 141.93 283.367 142.248 283.367 142.578V153.283C283.367 153.446 283.399 153.609 283.461 153.76C283.523 153.912 283.615 154.05 283.731 154.166C283.846 154.282 283.984 154.374 284.135 154.437C284.286 154.5 284.449 154.533 284.613 154.533H295.322C295.653 154.533 295.971 154.401 296.206 154.166C296.44 153.932 296.572 153.614 296.572 153.283V142.578C296.571 142.247 296.439 141.93 296.205 141.695C295.97 141.461 295.653 141.329 295.322 141.328V141.328Z" fill="#2C28FF"/>
</g>
<g filter="url(#filter29_d_681_659)">
<path d="M317.808 123.079H307.099C306.768 123.08 306.451 123.212 306.217 123.447C305.984 123.681 305.853 123.998 305.853 124.329V135.033C305.853 135.197 305.884 135.36 305.947 135.511C306.009 135.663 306.101 135.801 306.217 135.917C306.332 136.033 306.47 136.125 306.621 136.188C306.772 136.251 306.935 136.284 307.099 136.284H317.808C318.139 136.284 318.457 136.152 318.691 135.917C318.926 135.683 319.058 135.365 319.058 135.033V124.329C319.057 123.998 318.925 123.681 318.691 123.446C318.456 123.212 318.139 123.08 317.808 123.079V123.079Z" fill="#2C28FF"/>
</g>
<g filter="url(#filter30_d_681_659)">
<path d="M340.293 86.5808H329.584C329.253 86.5819 328.936 86.7142 328.703 86.9485C328.469 87.1829 328.338 87.5002 328.338 87.831V98.54C328.338 98.8703 328.47 99.1871 328.703 99.4206C328.937 99.6542 329.254 99.7854 329.584 99.7855H340.293C340.624 99.7856 340.941 99.6546 341.175 99.4211C341.41 99.1876 341.542 98.8708 341.543 98.54V87.831C341.542 87.4997 341.41 87.1823 341.176 86.948C340.942 86.7138 340.624 86.5817 340.293 86.5808V86.5808Z" fill="#2C28FF"/>
</g>
<g filter="url(#filter31_d_681_659)">
<path d="M340.293 104.83H329.584C329.253 104.831 328.936 104.963 328.703 105.198C328.469 105.432 328.338 105.749 328.338 106.08V116.789C328.338 117.119 328.47 117.436 328.703 117.67C328.937 117.903 329.254 118.035 329.584 118.035H340.293C340.624 118.035 340.941 117.904 341.175 117.67C341.41 117.437 341.542 117.12 341.543 116.789V106.08C341.542 105.749 341.41 105.431 341.176 105.197C340.942 104.963 340.624 104.831 340.293 104.83Z" fill="#2C28FF"/>
</g>
<g filter="url(#filter32_d_681_659)">
<path d="M362.778 86.5808H352.069C351.738 86.5819 351.422 86.7142 351.188 86.9485C350.955 87.1829 350.824 87.5002 350.824 87.831V98.54C350.824 98.8703 350.955 99.1871 351.189 99.4206C351.422 99.6542 351.739 99.7854 352.069 99.7855H362.778C363.109 99.7856 363.426 99.6546 363.661 99.4211C363.895 99.1876 364.027 98.8708 364.028 98.54V87.831C364.028 87.4997 363.895 87.1823 363.661 86.948C363.427 86.7138 363.109 86.5817 362.778 86.5808Z" fill="#2C28FF"/>
</g>
<g filter="url(#filter33_d_681_659)">
<path d="M385.264 104.83H374.555C374.224 104.831 373.907 104.963 373.674 105.198C373.44 105.432 373.309 105.749 373.31 106.08V116.789C373.31 117.119 373.441 117.436 373.674 117.67C373.908 117.903 374.225 118.035 374.555 118.035H385.264C385.595 118.035 385.912 117.904 386.147 117.67C386.381 117.437 386.513 117.12 386.514 116.789V106.08C386.513 105.749 386.381 105.431 386.147 105.197C385.913 104.963 385.595 104.831 385.264 104.83V104.83Z" fill="#2C28FF"/>
</g>
<g filter="url(#filter34_d_681_659)">
<path d="M385.264 123.079H374.555C374.224 123.08 373.907 123.212 373.674 123.447C373.44 123.681 373.309 123.998 373.31 124.329V135.033C373.309 135.197 373.341 135.36 373.403 135.511C373.466 135.663 373.557 135.801 373.673 135.917C373.789 136.033 373.926 136.125 374.078 136.188C374.229 136.251 374.391 136.284 374.555 136.284H385.264C385.596 136.284 385.913 136.152 386.148 135.917C386.382 135.683 386.514 135.365 386.514 135.033V124.329C386.513 123.998 386.381 123.681 386.147 123.446C385.913 123.212 385.595 123.08 385.264 123.079V123.079Z" fill="#2C28FF"/>
</g>
<g filter="url(#filter35_d_681_659)">
<path d="M407.75 123.079H397.041C396.71 123.08 396.393 123.212 396.16 123.447C395.926 123.681 395.795 123.998 395.795 124.329V135.033C395.795 135.197 395.827 135.36 395.889 135.511C395.952 135.663 396.043 135.801 396.159 135.917C396.275 136.033 396.412 136.125 396.563 136.188C396.715 136.251 396.877 136.284 397.041 136.284H407.75C408.081 136.284 408.399 136.152 408.634 135.917C408.868 135.683 409 135.365 409 135.033V124.329C408.999 123.998 408.867 123.681 408.633 123.446C408.399 123.212 408.081 123.08 407.75 123.079V123.079Z" fill="#2C28FF"/>
</g>
<g filter="url(#filter36_d_681_659)">
<path d="M205.379 104.83H194.675C194.344 104.83 194.026 104.962 193.791 105.196C193.557 105.431 193.425 105.749 193.425 106.08V116.789C193.425 116.953 193.458 117.115 193.521 117.267C193.584 117.418 193.676 117.555 193.792 117.671C193.908 117.787 194.046 117.878 194.197 117.941C194.349 118.003 194.511 118.035 194.675 118.035H205.379C205.71 118.035 206.028 117.904 206.262 117.67C206.496 117.437 206.629 117.12 206.63 116.789V106.08C206.629 105.749 206.497 105.431 206.262 105.197C206.028 104.963 205.711 104.831 205.379 104.83Z" fill="white"/>
</g>
<g filter="url(#filter37_d_681_659)">
<path d="M227.865 86.5808H217.161C216.829 86.5809 216.511 86.7127 216.277 86.9471C216.043 87.1815 215.911 87.4994 215.911 87.831V98.54C215.911 98.7039 215.943 98.8662 216.006 99.0175C216.069 99.1689 216.161 99.3063 216.277 99.422C216.394 99.5377 216.531 99.6293 216.683 99.6917C216.835 99.7541 216.997 99.786 217.161 99.7855H227.865C228.196 99.7856 228.513 99.6546 228.748 99.4211C228.982 99.1877 229.114 98.8708 229.115 98.54V87.831C229.114 87.4997 228.982 87.1822 228.748 86.948C228.514 86.7137 228.196 86.5817 227.865 86.5808V86.5808Z" fill="white"/>
</g>
<g filter="url(#filter38_d_681_659)">
<path d="M295.322 123.079H284.613C284.282 123.08 283.965 123.212 283.732 123.447C283.498 123.681 283.367 123.998 283.367 124.329V135.033C283.367 135.197 283.399 135.36 283.461 135.511C283.523 135.663 283.615 135.801 283.731 135.917C283.846 136.033 283.984 136.125 284.135 136.188C284.286 136.251 284.449 136.284 284.613 136.284H295.322C295.653 136.284 295.971 136.152 296.206 135.917C296.44 135.683 296.572 135.365 296.572 135.033V124.329C296.571 123.998 296.439 123.68 296.205 123.446C295.97 123.212 295.653 123.08 295.322 123.079V123.079Z" fill="white"/>
</g>
<g filter="url(#filter39_d_681_659)">
<path d="M362.778 104.83H352.069C351.738 104.831 351.422 104.963 351.188 105.198C350.955 105.432 350.824 105.749 350.824 106.08V116.789C350.824 117.119 350.955 117.436 351.189 117.67C351.422 117.903 351.739 118.035 352.069 118.035H362.778C363.109 118.035 363.426 117.904 363.661 117.67C363.895 117.437 364.027 117.12 364.028 116.789V106.08C364.028 105.749 363.895 105.431 363.661 105.197C363.427 104.963 363.109 104.831 362.778 104.83V104.83Z" fill="#E6E6E6"/>
</g>
<g filter="url(#filter40_d_681_659)">
<path d="M385.264 86.5808H374.555C374.224 86.5819 373.907 86.7142 373.674 86.9485C373.44 87.1829 373.309 87.5002 373.31 87.831V98.54C373.31 98.8703 373.441 99.1871 373.674 99.4206C373.908 99.6542 374.225 99.7854 374.555 99.7855H385.264C385.595 99.7856 385.912 99.6546 386.147 99.4211C386.381 99.1876 386.513 98.8708 386.514 98.54V87.831C386.513 87.4997 386.381 87.1823 386.147 86.948C385.913 86.7138 385.595 86.5817 385.264 86.5808V86.5808Z" fill="#E6E6E6"/>
</g>
<g filter="url(#filter41_d_681_659)">
<path d="M385.264 159.577H374.555C374.391 159.577 374.229 159.61 374.077 159.673C373.926 159.736 373.789 159.828 373.673 159.944C373.557 160.06 373.466 160.198 373.403 160.35C373.341 160.501 373.309 160.664 373.31 160.827V171.532C373.309 171.696 373.341 171.858 373.403 172.01C373.466 172.161 373.557 172.299 373.673 172.415C373.789 172.531 373.926 172.623 374.077 172.686C374.229 172.749 374.391 172.782 374.555 172.782H385.264C385.596 172.782 385.914 172.65 386.148 172.416C386.382 172.181 386.514 171.863 386.514 171.532V160.827C386.514 160.496 386.382 160.178 386.148 159.944C385.914 159.709 385.596 159.577 385.264 159.577V159.577Z" fill="#E6E6E6"/>
</g>
<g filter="url(#filter42_d_681_659)">
<path d="M407.75 86.5808H397.041C396.71 86.5819 396.393 86.7142 396.16 86.9485C395.926 87.1828 395.795 87.5002 395.795 87.831V98.54C395.795 98.8703 395.927 99.1871 396.16 99.4206C396.394 99.6542 396.711 99.7854 397.041 99.7855H407.75C408.081 99.7856 408.398 99.6546 408.632 99.4211C408.867 99.1876 408.999 98.8708 409 98.54V87.831C408.999 87.4997 408.867 87.1823 408.633 86.948C408.399 86.7138 408.081 86.5817 407.75 86.5808V86.5808Z" fill="#E6E6E6"/>
</g>
<g filter="url(#filter43_d_681_659)">
<path d="M407.75 104.83H397.041C396.71 104.831 396.393 104.963 396.16 105.198C395.926 105.432 395.795 105.749 395.795 106.08V116.789C395.795 117.119 395.927 117.436 396.16 117.67C396.394 117.903 396.711 118.035 397.041 118.035H407.75C408.081 118.035 408.398 117.904 408.632 117.67C408.867 117.437 408.999 117.12 409 116.789V106.08C408.999 105.749 408.867 105.431 408.633 105.197C408.399 104.963 408.081 104.831 407.75 104.83V104.83Z" fill="#E6E6E6"/>
</g>
<g filter="url(#filter44_d_681_659)">
<path d="M407.75 141.328H397.041C396.71 141.329 396.393 141.461 396.16 141.696C395.926 141.93 395.795 142.248 395.795 142.578V153.283C395.795 153.446 395.827 153.609 395.889 153.76C395.952 153.912 396.043 154.05 396.159 154.166C396.275 154.282 396.412 154.374 396.563 154.437C396.715 154.5 396.877 154.533 397.041 154.533H407.75C408.081 154.533 408.399 154.401 408.634 154.166C408.868 153.932 409 153.614 409 153.283V142.578C408.999 142.247 408.867 141.93 408.633 141.695C408.399 141.461 408.081 141.329 407.75 141.328V141.328Z" fill="#E6E6E6"/>
</g>
<g filter="url(#filter45_d_681_659)">
<path d="M407.75 159.577H397.041C396.877 159.577 396.715 159.61 396.563 159.673C396.412 159.736 396.275 159.828 396.159 159.944C396.043 160.06 395.952 160.198 395.889 160.35C395.827 160.501 395.795 160.664 395.795 160.827V171.532C395.795 171.696 395.827 171.858 395.889 172.01C395.952 172.161 396.043 172.299 396.159 172.415C396.275 172.531 396.412 172.623 396.563 172.686C396.715 172.749 396.877 172.782 397.041 172.782H407.75C408.081 172.782 408.399 172.65 408.634 172.416C408.868 172.181 409 171.863 409 171.532V160.827C409 160.496 408.868 160.178 408.634 159.944C408.399 159.709 408.081 159.577 407.75 159.577V159.577Z" fill="#E6E6E6"/>
</g>
<path d="M205.379 123.079H194.675C194.344 123.079 194.026 123.211 193.791 123.445C193.557 123.68 193.425 123.998 193.425 124.329V135.033C193.425 135.198 193.457 135.36 193.52 135.512C193.582 135.664 193.674 135.802 193.79 135.918C193.907 136.034 194.045 136.126 194.196 136.189C194.348 136.252 194.511 136.284 194.675 136.284H205.379C205.711 136.284 206.029 136.152 206.263 135.917C206.498 135.683 206.63 135.365 206.63 135.033V124.329C206.629 123.998 206.497 123.68 206.262 123.446C206.028 123.212 205.711 123.08 205.379 123.079V123.079Z" fill="white"/>
<path d="M206.61 142.357C206.557 142.069 206.405 141.809 206.18 141.621C205.956 141.433 205.672 141.33 205.379 141.328H194.675C194.344 141.328 194.026 141.46 193.791 141.694C193.557 141.929 193.425 142.247 193.425 142.578V153.283C193.425 153.447 193.457 153.61 193.52 153.761C193.582 153.913 193.674 154.051 193.79 154.167C193.907 154.284 194.045 154.376 194.196 154.438C194.348 154.501 194.511 154.533 194.675 154.533H205.379C205.711 154.533 206.029 154.401 206.263 154.166C206.498 153.932 206.63 153.614 206.63 153.283V142.578C206.631 142.504 206.624 142.43 206.61 142.357V142.357Z" fill="white"/>
<path d="M205.865 159.673C205.711 159.61 205.546 159.577 205.379 159.577H194.675C194.511 159.577 194.348 159.609 194.196 159.672C194.045 159.734 193.907 159.827 193.79 159.943C193.674 160.059 193.582 160.197 193.52 160.349C193.457 160.5 193.425 160.663 193.425 160.827V171.532C193.424 171.696 193.456 171.859 193.519 172.011C193.581 172.163 193.673 172.301 193.79 172.417C193.906 172.534 194.044 172.626 194.196 172.688C194.348 172.751 194.511 172.783 194.675 172.782H205.379C205.711 172.782 206.029 172.65 206.263 172.416C206.498 172.181 206.63 171.863 206.63 171.532V160.827C206.629 160.581 206.556 160.341 206.42 160.136C206.285 159.931 206.091 159.77 205.865 159.673Z" fill="white"/>
<path d="M227.865 159.577H217.161C216.997 159.577 216.834 159.609 216.682 159.672C216.53 159.734 216.392 159.827 216.276 159.943C216.16 160.059 216.068 160.197 216.005 160.349C215.942 160.5 215.91 160.663 215.911 160.827V171.532C215.91 171.696 215.942 171.859 216.005 172.011C216.068 172.162 216.16 172.3 216.276 172.417C216.392 172.533 216.53 172.625 216.682 172.687C216.834 172.75 216.997 172.782 217.161 172.782H227.865C228.197 172.782 228.515 172.65 228.749 172.416C228.983 172.181 229.115 171.863 229.115 171.532V160.827C229.115 160.496 228.983 160.178 228.749 159.944C228.515 159.709 228.197 159.577 227.865 159.577V159.577Z" fill="white"/>
<path d="M254.265 208.549L230.625 154.143C228.692 149.677 225.238 146.039 220.878 143.877C219.53 143.213 218.115 142.697 216.656 142.338C216.43 142.28 216.204 142.227 215.978 142.184C212.885 141.509 209.677 141.568 206.611 142.357C203.808 143.077 201.189 144.38 198.923 146.18C196.658 147.981 194.798 150.239 193.464 152.806C193.449 152.828 193.436 152.85 193.425 152.874C191.935 155.756 191.143 158.949 191.112 162.194C191.081 165.438 191.812 168.645 193.247 171.556L193.541 172.142L210.246 205.693C210.816 206.84 211.138 208.095 211.189 209.375C211.24 210.655 211.021 211.932 210.544 213.121C210.067 214.311 209.344 215.386 208.423 216.276C207.501 217.166 206.402 217.851 205.197 218.287L204.023 218.71L182.923 226.332C181.339 226.897 180.037 228.054 179.29 229.56C178.543 231.066 178.409 232.803 178.917 234.406L178.97 234.574L184.885 253.501C184.914 253.588 184.942 253.674 184.976 253.761C185.028 253.924 185.092 254.083 185.168 254.237C185.797 255.647 186.908 256.786 188.302 257.45C189.695 258.113 191.28 258.258 192.771 257.858L204.158 254.852L206.481 254.237L235.886 246.471C239.755 245.448 243.358 243.602 246.447 241.058C249.536 238.514 252.039 235.332 253.785 231.731C255.53 228.13 256.477 224.194 256.559 220.192C256.642 216.191 255.86 212.22 254.265 208.549L254.265 208.549Z" fill="#CACACA"/>
<path d="M220.551 123.079C220.322 122.657 219.984 122.305 219.572 122.059C219.16 121.814 218.689 121.684 218.209 121.684H60.56C59.8532 121.686 59.176 121.968 58.6766 122.468C58.1773 122.969 57.8966 123.646 57.896 124.353V218.71H220.878V124.353C220.88 123.907 220.768 123.469 220.551 123.079V123.079Z" fill="#3F3D56"/>
<defs>
<filter id="filter0_d_681_659" x="188.925" y="83.5808" width="25.2046" height="25.2047" filterUnits="userSpaceOnUse" color-interpolation-filters="sRGB">
<feFlood flood-opacity="0" result="BackgroundImageFix"/>
<feColorMatrix in="SourceAlpha" type="matrix" values="0 0 0 0 0 0 0 0 0 0 0 0 0 0 0 0 0 0 127 0" result="hardAlpha"/>
<feOffset dx="1.5" dy="3"/>
<feGaussianBlur stdDeviation="3"/>
<feComposite in2="hardAlpha" operator="out"/>
<feColorMatrix type="matrix" values="0 0 0 0 0 0 0 0 0 0 0 0 0 0 0 0 0 0 0.25 0"/>
<feBlend mode="normal" in2="BackgroundImageFix" result="effect1_dropShadow_681_659"/>
<feBlend mode="normal" in="SourceGraphic" in2="effect1_dropShadow_681_659" result="shape"/>
</filter>
<filter id="filter1_d_681_659" x="256.382" y="101.83" width="25.2048" height="25.2047" filterUnits="userSpaceOnUse" color-interpolation-filters="sRGB">
<feFlood flood-opacity="0" result="BackgroundImageFix"/>
<feColorMatrix in="SourceAlpha" type="matrix" values="0 0 0 0 0 0 0 0 0 0 0 0 0 0 0 0 0 0 127 0" result="hardAlpha"/>
<feOffset dx="1.5" dy="3"/>
<feGaussianBlur stdDeviation="3"/>
<feComposite in2="hardAlpha" operator="out"/>
<feColorMatrix type="matrix" values="0 0 0 0 0 0 0 0 0 0 0 0 0 0 0 0 0 0 0.25 0"/>
<feBlend mode="normal" in2="BackgroundImageFix" result="effect1_dropShadow_681_659"/>
<feBlend mode="normal" in="SourceGraphic" in2="effect1_dropShadow_681_659" result="shape"/>
</filter>
<filter id="filter2_d_681_659" x="256.382" y="120.079" width="25.2048" height="25.2047" filterUnits="userSpaceOnUse" color-interpolation-filters="sRGB">
<feFlood flood-opacity="0" result="BackgroundImageFix"/>
<feColorMatrix in="SourceAlpha" type="matrix" values="0 0 0 0 0 0 0 0 0 0 0 0 0 0 0 0 0 0 127 0" result="hardAlpha"/>
<feOffset dx="1.5" dy="3"/>
<feGaussianBlur stdDeviation="3"/>
<feComposite in2="hardAlpha" operator="out"/>
<feColorMatrix type="matrix" values="0 0 0 0 0 0 0 0 0 0 0 0 0 0 0 0 0 0 0.25 0"/>
<feBlend mode="normal" in2="BackgroundImageFix" result="effect1_dropShadow_681_659"/>
<feBlend mode="normal" in="SourceGraphic" in2="effect1_dropShadow_681_659" result="shape"/>
</filter>
<filter id="filter3_d_681_659" x="278.867" y="83.5808" width="25.2048" height="25.2047" filterUnits="userSpaceOnUse" color-interpolation-filters="sRGB">
<feFlood flood-opacity="0" result="BackgroundImageFix"/>
<feColorMatrix in="SourceAlpha" type="matrix" values="0 0 0 0 0 0 0 0 0 0 0 0 0 0 0 0 0 0 127 0" result="hardAlpha"/>
<feOffset dx="1.5" dy="3"/>
<feGaussianBlur stdDeviation="3"/>
<feComposite in2="hardAlpha" operator="out"/>
<feColorMatrix type="matrix" values="0 0 0 0 0 0 0 0 0 0 0 0 0 0 0 0 0 0 0.25 0"/>
<feBlend mode="normal" in2="BackgroundImageFix" result="effect1_dropShadow_681_659"/>
<feBlend mode="normal" in="SourceGraphic" in2="effect1_dropShadow_681_659" result="shape"/>
</filter>
<filter id="filter4_d_681_659" x="278.867" y="101.83" width="25.2048" height="25.2047" filterUnits="userSpaceOnUse" color-interpolation-filters="sRGB">
<feFlood flood-opacity="0" result="BackgroundImageFix"/>
<feColorMatrix in="SourceAlpha" type="matrix" values="0 0 0 0 0 0 0 0 0 0 0 0 0 0 0 0 0 0 127 0" result="hardAlpha"/>
<feOffset dx="1.5" dy="3"/>
<feGaussianBlur stdDeviation="3"/>
<feComposite in2="hardAlpha" operator="out"/>
<feColorMatrix type="matrix" values="0 0 0 0 0 0 0 0 0 0 0 0 0 0 0 0 0 0 0.25 0"/>
<feBlend mode="normal" in2="BackgroundImageFix" result="effect1_dropShadow_681_659"/>
<feBlend mode="normal" in="SourceGraphic" in2="effect1_dropShadow_681_659" result="shape"/>
</filter>
<filter id="filter5_d_681_659" x="301.353" y="83.5808" width="25.2048" height="25.2047" filterUnits="userSpaceOnUse" color-interpolation-filters="sRGB">
<feFlood flood-opacity="0" result="BackgroundImageFix"/>
<feColorMatrix in="SourceAlpha" type="matrix" values="0 0 0 0 0 0 0 0 0 0 0 0 0 0 0 0 0 0 127 0" result="hardAlpha"/>
<feOffset dx="1.5" dy="3"/>
<feGaussianBlur stdDeviation="3"/>
<feComposite in2="hardAlpha" operator="out"/>
<feColorMatrix type="matrix" values="0 0 0 0 0 0 0 0 0 0 0 0 0 0 0 0 0 0 0.25 0"/>
<feBlend mode="normal" in2="BackgroundImageFix" result="effect1_dropShadow_681_659"/>
<feBlend mode="normal" in="SourceGraphic" in2="effect1_dropShadow_681_659" result="shape"/>
</filter>
<filter id="filter6_d_681_659" x="301.353" y="101.83" width="25.2048" height="25.2047" filterUnits="userSpaceOnUse" color-interpolation-filters="sRGB">
<feFlood flood-opacity="0" result="BackgroundImageFix"/>
<feColorMatrix in="SourceAlpha" type="matrix" values="0 0 0 0 0 0 0 0 0 0 0 0 0 0 0 0 0 0 127 0" result="hardAlpha"/>
<feOffset dx="1.5" dy="3"/>
<feGaussianBlur stdDeviation="3"/>
<feComposite in2="hardAlpha" operator="out"/>
<feColorMatrix type="matrix" values="0 0 0 0 0 0 0 0 0 0 0 0 0 0 0 0 0 0 0.25 0"/>
<feBlend mode="normal" in2="BackgroundImageFix" result="effect1_dropShadow_681_659"/>
<feBlend mode="normal" in="SourceGraphic" in2="effect1_dropShadow_681_659" result="shape"/>
</filter>
<filter id="filter7_d_681_659" x="301.353" y="156.577" width="25.2048" height="25.2048" filterUnits="userSpaceOnUse" color-interpolation-filters="sRGB">
<feFlood flood-opacity="0" result="BackgroundImageFix"/>
<feColorMatrix in="SourceAlpha" type="matrix" values="0 0 0 0 0 0 0 0 0 0 0 0 0 0 0 0 0 0 127 0" result="hardAlpha"/>
<feOffset dx="1.5" dy="3"/>
<feGaussianBlur stdDeviation="3"/>
<feComposite in2="hardAlpha" operator="out"/>
<feColorMatrix type="matrix" values="0 0 0 0 0 0 0 0 0 0 0 0 0 0 0 0 0 0 0.25 0"/>
<feBlend mode="normal" in2="BackgroundImageFix" result="effect1_dropShadow_681_659"/>
<feBlend mode="normal" in="SourceGraphic" in2="effect1_dropShadow_681_659" result="shape"/>
</filter>
<filter id="filter8_d_681_659" x="323.838" y="138.328" width="25.2048" height="25.2048" filterUnits="userSpaceOnUse" color-interpolation-filters="sRGB">
<feFlood flood-opacity="0" result="BackgroundImageFix"/>
<feColorMatrix in="SourceAlpha" type="matrix" values="0 0 0 0 0 0 0 0 0 0 0 0 0 0 0 0 0 0 127 0" result="hardAlpha"/>
<feOffset dx="1.5" dy="3"/>
<feGaussianBlur stdDeviation="3"/>
<feComposite in2="hardAlpha" operator="out"/>
<feColorMatrix type="matrix" values="0 0 0 0 0 0 0 0 0 0 0 0 0 0 0 0 0 0 0.25 0"/>
<feBlend mode="normal" in2="BackgroundImageFix" result="effect1_dropShadow_681_659"/>
<feBlend mode="normal" in="SourceGraphic" in2="effect1_dropShadow_681_659" result="shape"/>
</filter>
<filter id="filter9_d_681_659" x="233.896" y="120.079" width="25.2048" height="25.2047" filterUnits="userSpaceOnUse" color-interpolation-filters="sRGB">
<feFlood flood-opacity="0" result="BackgroundImageFix"/>
<feColorMatrix in="SourceAlpha" type="matrix" values="0 0 0 0 0 0 0 0 0 0 0 0 0 0 0 0 0 0 127 0" result="hardAlpha"/>
<feOffset dx="1.5" dy="3"/>
<feGaussianBlur stdDeviation="3"/>
<feComposite in2="hardAlpha" operator="out"/>
<feColorMatrix type="matrix" values="0 0 0 0 0 0 0 0 0 0 0 0 0 0 0 0 0 0 0.25 0"/>
<feBlend mode="normal" in2="BackgroundImageFix" result="effect1_dropShadow_681_659"/>
<feBlend mode="normal" in="SourceGraphic" in2="effect1_dropShadow_681_659" result="shape"/>
</filter>
<filter id="filter10_d_681_659" x="256.382" y="138.328" width="25.2048" height="25.2048" filterUnits="userSpaceOnUse" color-interpolation-filters="sRGB">
<feFlood flood-opacity="0" result="BackgroundImageFix"/>
<feColorMatrix in="SourceAlpha" type="matrix" values="0 0 0 0 0 0 0 0 0 0 0 0 0 0 0 0 0 0 127 0" result="hardAlpha"/>
<feOffset dx="1.5" dy="3"/>
<feGaussianBlur stdDeviation="3"/>
<feComposite in2="hardAlpha" operator="out"/>
<feColorMatrix type="matrix" values="0 0 0 0 0 0 0 0 0 0 0 0 0 0 0 0 0 0 0.25 0"/>
<feBlend mode="normal" in2="BackgroundImageFix" result="effect1_dropShadow_681_659"/>
<feBlend mode="normal" in="SourceGraphic" in2="effect1_dropShadow_681_659" result="shape"/>
</filter>
<filter id="filter11_d_681_659" x="278.867" y="156.577" width="25.2048" height="25.2048" filterUnits="userSpaceOnUse" color-interpolation-filters="sRGB">
<feFlood flood-opacity="0" result="BackgroundImageFix"/>
<feColorMatrix in="SourceAlpha" type="matrix" values="0 0 0 0 0 0 0 0 0 0 0 0 0 0 0 0 0 0 127 0" result="hardAlpha"/>
<feOffset dx="1.5" dy="3"/>
<feGaussianBlur stdDeviation="3"/>
<feComposite in2="hardAlpha" operator="out"/>
<feColorMatrix type="matrix" values="0 0 0 0 0 0 0 0 0 0 0 0 0 0 0 0 0 0 0.25 0"/>
<feBlend mode="normal" in2="BackgroundImageFix" result="effect1_dropShadow_681_659"/>
<feBlend mode="normal" in="SourceGraphic" in2="effect1_dropShadow_681_659" result="shape"/>
</filter>
<filter id="filter12_d_681_659" x="301.353" y="138.328" width="25.2048" height="25.2048" filterUnits="userSpaceOnUse" color-interpolation-filters="sRGB">
<feFlood flood-opacity="0" result="BackgroundImageFix"/>
<feColorMatrix in="SourceAlpha" type="matrix" values="0 0 0 0 0 0 0 0 0 0 0 0 0 0 0 0 0 0 127 0" result="hardAlpha"/>
<feOffset dx="1.5" dy="3"/>
<feGaussianBlur stdDeviation="3"/>
<feComposite in2="hardAlpha" operator="out"/>
<feColorMatrix type="matrix" values="0 0 0 0 0 0 0 0 0 0 0 0 0 0 0 0 0 0 0.25 0"/>
<feBlend mode="normal" in2="BackgroundImageFix" result="effect1_dropShadow_681_659"/>
<feBlend mode="normal" in="SourceGraphic" in2="effect1_dropShadow_681_659" result="shape"/>
</filter>
<filter id="filter13_d_681_659" x="323.838" y="120.079" width="25.2048" height="25.2047" filterUnits="userSpaceOnUse" color-interpolation-filters="sRGB">
<feFlood flood-opacity="0" result="BackgroundImageFix"/>
<feColorMatrix in="SourceAlpha" type="matrix" values="0 0 0 0 0 0 0 0 0 0 0 0 0 0 0 0 0 0 127 0" result="hardAlpha"/>
<feOffset dx="1.5" dy="3"/>
<feGaussianBlur stdDeviation="3"/>
<feComposite in2="hardAlpha" operator="out"/>
<feColorMatrix type="matrix" values="0 0 0 0 0 0 0 0 0 0 0 0 0 0 0 0 0 0 0.25 0"/>
<feBlend mode="normal" in2="BackgroundImageFix" result="effect1_dropShadow_681_659"/>
<feBlend mode="normal" in="SourceGraphic" in2="effect1_dropShadow_681_659" result="shape"/>
</filter>
<filter id="filter14_d_681_659" x="323.838" y="156.577" width="25.2048" height="25.2048" filterUnits="userSpaceOnUse" color-interpolation-filters="sRGB">
<feFlood flood-opacity="0" result="BackgroundImageFix"/>
<feColorMatrix in="SourceAlpha" type="matrix" values="0 0 0 0 0 0 0 0 0 0 0 0 0 0 0 0 0 0 127 0" result="hardAlpha"/>
<feOffset dx="1.5" dy="3"/>
<feGaussianBlur stdDeviation="3"/>
<feComposite in2="hardAlpha" operator="out"/>
<feColorMatrix type="matrix" values="0 0 0 0 0 0 0 0 0 0 0 0 0 0 0 0 0 0 0.25 0"/>
<feBlend mode="normal" in2="BackgroundImageFix" result="effect1_dropShadow_681_659"/>
<feBlend mode="normal" in="SourceGraphic" in2="effect1_dropShadow_681_659" result="shape"/>
</filter>
<filter id="filter15_d_681_659" x="346.324" y="120.079" width="25.2046" height="25.2047" filterUnits="userSpaceOnUse" color-interpolation-filters="sRGB">
<feFlood flood-opacity="0" result="BackgroundImageFix"/>
<feColorMatrix in="SourceAlpha" type="matrix" values="0 0 0 0 0 0 0 0 0 0 0 0 0 0 0 0 0 0 127 0" result="hardAlpha"/>
<feOffset dx="1.5" dy="3"/>
<feGaussianBlur stdDeviation="3"/>
<feComposite in2="hardAlpha" operator="out"/>
<feColorMatrix type="matrix" values="0 0 0 0 0 0 0 0 0 0 0 0 0 0 0 0 0 0 0.25 0"/>
<feBlend mode="normal" in2="BackgroundImageFix" result="effect1_dropShadow_681_659"/>
<feBlend mode="normal" in="SourceGraphic" in2="effect1_dropShadow_681_659" result="shape"/>
</filter>
<filter id="filter16_d_681_659" x="346.324" y="138.328" width="25.2046" height="25.2048" filterUnits="userSpaceOnUse" color-interpolation-filters="sRGB">
<feFlood flood-opacity="0" result="BackgroundImageFix"/>
<feColorMatrix in="SourceAlpha" type="matrix" values="0 0 0 0 0 0 0 0 0 0 0 0 0 0 0 0 0 0 127 0" result="hardAlpha"/>
<feOffset dx="1.5" dy="3"/>
<feGaussianBlur stdDeviation="3"/>
<feComposite in2="hardAlpha" operator="out"/>
<feColorMatrix type="matrix" values="0 0 0 0 0 0 0 0 0 0 0 0 0 0 0 0 0 0 0.25 0"/>
<feBlend mode="normal" in2="BackgroundImageFix" result="effect1_dropShadow_681_659"/>
<feBlend mode="normal" in="SourceGraphic" in2="effect1_dropShadow_681_659" result="shape"/>
</filter>
<filter id="filter17_d_681_659" x="346.324" y="156.577" width="25.2046" height="25.2048" filterUnits="userSpaceOnUse" color-interpolation-filters="sRGB">
<feFlood flood-opacity="0" result="BackgroundImageFix"/>
<feColorMatrix in="SourceAlpha" type="matrix" values="0 0 0 0 0 0 0 0 0 0 0 0 0 0 0 0 0 0 127 0" result="hardAlpha"/>
<feOffset dx="1.5" dy="3"/>
<feGaussianBlur stdDeviation="3"/>
<feComposite in2="hardAlpha" operator="out"/>
<feColorMatrix type="matrix" values="0 0 0 0 0 0 0 0 0 0 0 0 0 0 0 0 0 0 0.25 0"/>
<feBlend mode="normal" in2="BackgroundImageFix" result="effect1_dropShadow_681_659"/>
<feBlend mode="normal" in="SourceGraphic" in2="effect1_dropShadow_681_659" result="shape"/>
</filter>
<filter id="filter18_d_681_659" x="368.81" y="138.328" width="25.2046" height="25.2048" filterUnits="userSpaceOnUse" color-interpolation-filters="sRGB">
<feFlood flood-opacity="0" result="BackgroundImageFix"/>
<feColorMatrix in="SourceAlpha" type="matrix" values="0 0 0 0 0 0 0 0 0 0 0 0 0 0 0 0 0 0 127 0" result="hardAlpha"/>
<feOffset dx="1.5" dy="3"/>
<feGaussianBlur stdDeviation="3"/>
<feComposite in2="hardAlpha" operator="out"/>
<feColorMatrix type="matrix" values="0 0 0 0 0 0 0 0 0 0 0 0 0 0 0 0 0 0 0.25 0"/>
<feBlend mode="normal" in2="BackgroundImageFix" result="effect1_dropShadow_681_659"/>
<feBlend mode="normal" in="SourceGraphic" in2="effect1_dropShadow_681_659" result="shape"/>
</filter>
<filter id="filter19_d_681_659" x="211.411" y="101.83" width="25.2048" height="25.2047" filterUnits="userSpaceOnUse" color-interpolation-filters="sRGB">
<feFlood flood-opacity="0" result="BackgroundImageFix"/>
<feColorMatrix in="SourceAlpha" type="matrix" values="0 0 0 0 0 0 0 0 0 0 0 0 0 0 0 0 0 0 127 0" result="hardAlpha"/>
<feOffset dx="1.5" dy="3"/>
<feGaussianBlur stdDeviation="3"/>
<feComposite in2="hardAlpha" operator="out"/>
<feColorMatrix type="matrix" values="0 0 0 0 0 0 0 0 0 0 0 0 0 0 0 0 0 0 0.25 0"/>
<feBlend mode="normal" in2="BackgroundImageFix" result="effect1_dropShadow_681_659"/>
<feBlend mode="normal" in="SourceGraphic" in2="effect1_dropShadow_681_659" result="shape"/>
</filter>
<filter id="filter20_d_681_659" x="211.411" y="120.079" width="25.2048" height="25.2047" filterUnits="userSpaceOnUse" color-interpolation-filters="sRGB">
<feFlood flood-opacity="0" result="BackgroundImageFix"/>
<feColorMatrix in="SourceAlpha" type="matrix" values="0 0 0 0 0 0 0 0 0 0 0 0 0 0 0 0 0 0 127 0" result="hardAlpha"/>
<feOffset dx="1.5" dy="3"/>
<feGaussianBlur stdDeviation="3"/>
<feComposite in2="hardAlpha" operator="out"/>
<feColorMatrix type="matrix" values="0 0 0 0 0 0 0 0 0 0 0 0 0 0 0 0 0 0 0.25 0"/>
<feBlend mode="normal" in2="BackgroundImageFix" result="effect1_dropShadow_681_659"/>
<feBlend mode="normal" in="SourceGraphic" in2="effect1_dropShadow_681_659" result="shape"/>
</filter>
<filter id="filter21_d_681_659" x="211.411" y="138.328" width="25.2048" height="25.2048" filterUnits="userSpaceOnUse" color-interpolation-filters="sRGB">
<feFlood flood-opacity="0" result="BackgroundImageFix"/>
<feColorMatrix in="SourceAlpha" type="matrix" values="0 0 0 0 0 0 0 0 0 0 0 0 0 0 0 0 0 0 127 0" result="hardAlpha"/>
<feOffset dx="1.5" dy="3"/>
<feGaussianBlur stdDeviation="3"/>
<feComposite in2="hardAlpha" operator="out"/>
<feColorMatrix type="matrix" values="0 0 0 0 0 0 0 0 0 0 0 0 0 0 0 0 0 0 0.25 0"/>
<feBlend mode="normal" in2="BackgroundImageFix" result="effect1_dropShadow_681_659"/>
<feBlend mode="normal" in="SourceGraphic" in2="effect1_dropShadow_681_659" result="shape"/>
</filter>
<filter id="filter22_d_681_659" x="233.896" y="83.5808" width="25.2048" height="25.2047" filterUnits="userSpaceOnUse" color-interpolation-filters="sRGB">
<feFlood flood-opacity="0" result="BackgroundImageFix"/>
<feColorMatrix in="SourceAlpha" type="matrix" values="0 0 0 0 0 0 0 0 0 0 0 0 0 0 0 0 0 0 127 0" result="hardAlpha"/>
<feOffset dx="1.5" dy="3"/>
<feGaussianBlur stdDeviation="3"/>
<feComposite in2="hardAlpha" operator="out"/>
<feColorMatrix type="matrix" values="0 0 0 0 0 0 0 0 0 0 0 0 0 0 0 0 0 0 0.25 0"/>
<feBlend mode="normal" in2="BackgroundImageFix" result="effect1_dropShadow_681_659"/>
<feBlend mode="normal" in="SourceGraphic" in2="effect1_dropShadow_681_659" result="shape"/>
</filter>
<filter id="filter23_d_681_659" x="233.896" y="101.83" width="25.2048" height="25.2047" filterUnits="userSpaceOnUse" color-interpolation-filters="sRGB">
<feFlood flood-opacity="0" result="BackgroundImageFix"/>
<feColorMatrix in="SourceAlpha" type="matrix" values="0 0 0 0 0 0 0 0 0 0 0 0 0 0 0 0 0 0 127 0" result="hardAlpha"/>
<feOffset dx="1.5" dy="3"/>
<feGaussianBlur stdDeviation="3"/>
<feComposite in2="hardAlpha" operator="out"/>
<feColorMatrix type="matrix" values="0 0 0 0 0 0 0 0 0 0 0 0 0 0 0 0 0 0 0.25 0"/>
<feBlend mode="normal" in2="BackgroundImageFix" result="effect1_dropShadow_681_659"/>
<feBlend mode="normal" in="SourceGraphic" in2="effect1_dropShadow_681_659" result="shape"/>
</filter>
<filter id="filter24_d_681_659" x="233.896" y="138.328" width="25.2048" height="25.2048" filterUnits="userSpaceOnUse" color-interpolation-filters="sRGB">
<feFlood flood-opacity="0" result="BackgroundImageFix"/>
<feColorMatrix in="SourceAlpha" type="matrix" values="0 0 0 0 0 0 0 0 0 0 0 0 0 0 0 0 0 0 127 0" result="hardAlpha"/>
<feOffset dx="1.5" dy="3"/>
<feGaussianBlur stdDeviation="3"/>
<feComposite in2="hardAlpha" operator="out"/>
<feColorMatrix type="matrix" values="0 0 0 0 0 0 0 0 0 0 0 0 0 0 0 0 0 0 0.25 0"/>
<feBlend mode="normal" in2="BackgroundImageFix" result="effect1_dropShadow_681_659"/>
<feBlend mode="normal" in="SourceGraphic" in2="effect1_dropShadow_681_659" result="shape"/>
</filter>
<filter id="filter25_d_681_659" x="233.896" y="156.577" width="25.2048" height="25.2048" filterUnits="userSpaceOnUse" color-interpolation-filters="sRGB">
<feFlood flood-opacity="0" result="BackgroundImageFix"/>
<feColorMatrix in="SourceAlpha" type="matrix" values="0 0 0 0 0 0 0 0 0 0 0 0 0 0 0 0 0 0 127 0" result="hardAlpha"/>
<feOffset dx="1.5" dy="3"/>
<feGaussianBlur stdDeviation="3"/>
<feComposite in2="hardAlpha" operator="out"/>
<feColorMatrix type="matrix" values="0 0 0 0 0 0 0 0 0 0 0 0 0 0 0 0 0 0 0.25 0"/>
<feBlend mode="normal" in2="BackgroundImageFix" result="effect1_dropShadow_681_659"/>
<feBlend mode="normal" in="SourceGraphic" in2="effect1_dropShadow_681_659" result="shape"/>
</filter>
<filter id="filter26_d_681_659" x="256.382" y="83.5808" width="25.2048" height="25.2047" filterUnits="userSpaceOnUse" color-interpolation-filters="sRGB">
<feFlood flood-opacity="0" result="BackgroundImageFix"/>
<feColorMatrix in="SourceAlpha" type="matrix" values="0 0 0 0 0 0 0 0 0 0 0 0 0 0 0 0 0 0 127 0" result="hardAlpha"/>
<feOffset dx="1.5" dy="3"/>
<feGaussianBlur stdDeviation="3"/>
<feComposite in2="hardAlpha" operator="out"/>
<feColorMatrix type="matrix" values="0 0 0 0 0 0 0 0 0 0 0 0 0 0 0 0 0 0 0.25 0"/>
<feBlend mode="normal" in2="BackgroundImageFix" result="effect1_dropShadow_681_659"/>
<feBlend mode="normal" in="SourceGraphic" in2="effect1_dropShadow_681_659" result="shape"/>
</filter>
<filter id="filter27_d_681_659" x="256.382" y="156.577" width="25.2048" height="25.2048" filterUnits="userSpaceOnUse" color-interpolation-filters="sRGB">
<feFlood flood-opacity="0" result="BackgroundImageFix"/>
<feColorMatrix in="SourceAlpha" type="matrix" values="0 0 0 0 0 0 0 0 0 0 0 0 0 0 0 0 0 0 127 0" result="hardAlpha"/>
<feOffset dx="1.5" dy="3"/>
<feGaussianBlur stdDeviation="3"/>
<feComposite in2="hardAlpha" operator="out"/>
<feColorMatrix type="matrix" values="0 0 0 0 0 0 0 0 0 0 0 0 0 0 0 0 0 0 0.25 0"/>
<feBlend mode="normal" in2="BackgroundImageFix" result="effect1_dropShadow_681_659"/>
<feBlend mode="normal" in="SourceGraphic" in2="effect1_dropShadow_681_659" result="shape"/>
</filter>
<filter id="filter28_d_681_659" x="278.867" y="138.328" width="25.2048" height="25.2048" filterUnits="userSpaceOnUse" color-interpolation-filters="sRGB">
<feFlood flood-opacity="0" result="BackgroundImageFix"/>
<feColorMatrix in="SourceAlpha" type="matrix" values="0 0 0 0 0 0 0 0 0 0 0 0 0 0 0 0 0 0 127 0" result="hardAlpha"/>
<feOffset dx="1.5" dy="3"/>
<feGaussianBlur stdDeviation="3"/>
<feComposite in2="hardAlpha" operator="out"/>
<feColorMatrix type="matrix" values="0 0 0 0 0 0 0 0 0 0 0 0 0 0 0 0 0 0 0.25 0"/>
<feBlend mode="normal" in2="BackgroundImageFix" result="effect1_dropShadow_681_659"/>
<feBlend mode="normal" in="SourceGraphic" in2="effect1_dropShadow_681_659" result="shape"/>
</filter>
<filter id="filter29_d_681_659" x="301.353" y="120.079" width="25.2048" height="25.2047" filterUnits="userSpaceOnUse" color-interpolation-filters="sRGB">
<feFlood flood-opacity="0" result="BackgroundImageFix"/>
<feColorMatrix in="SourceAlpha" type="matrix" values="0 0 0 0 0 0 0 0 0 0 0 0 0 0 0 0 0 0 127 0" result="hardAlpha"/>
<feOffset dx="1.5" dy="3"/>
<feGaussianBlur stdDeviation="3"/>
<feComposite in2="hardAlpha" operator="out"/>
<feColorMatrix type="matrix" values="0 0 0 0 0 0 0 0 0 0 0 0 0 0 0 0 0 0 0.25 0"/>
<feBlend mode="normal" in2="BackgroundImageFix" result="effect1_dropShadow_681_659"/>
<feBlend mode="normal" in="SourceGraphic" in2="effect1_dropShadow_681_659" result="shape"/>
</filter>
<filter id="filter30_d_681_659" x="323.838" y="83.5808" width="25.2048" height="25.2047" filterUnits="userSpaceOnUse" color-interpolation-filters="sRGB">
<feFlood flood-opacity="0" result="BackgroundImageFix"/>
<feColorMatrix in="SourceAlpha" type="matrix" values="0 0 0 0 0 0 0 0 0 0 0 0 0 0 0 0 0 0 127 0" result="hardAlpha"/>
<feOffset dx="1.5" dy="3"/>
<feGaussianBlur stdDeviation="3"/>
<feComposite in2="hardAlpha" operator="out"/>
<feColorMatrix type="matrix" values="0 0 0 0 0 0 0 0 0 0 0 0 0 0 0 0 0 0 0.25 0"/>
<feBlend mode="normal" in2="BackgroundImageFix" result="effect1_dropShadow_681_659"/>
<feBlend mode="normal" in="SourceGraphic" in2="effect1_dropShadow_681_659" result="shape"/>
</filter>
<filter id="filter31_d_681_659" x="323.838" y="101.83" width="25.2048" height="25.2047" filterUnits="userSpaceOnUse" color-interpolation-filters="sRGB">
<feFlood flood-opacity="0" result="BackgroundImageFix"/>
<feColorMatrix in="SourceAlpha" type="matrix" values="0 0 0 0 0 0 0 0 0 0 0 0 0 0 0 0 0 0 127 0" result="hardAlpha"/>
<feOffset dx="1.5" dy="3"/>
<feGaussianBlur stdDeviation="3"/>
<feComposite in2="hardAlpha" operator="out"/>
<feColorMatrix type="matrix" values="0 0 0 0 0 0 0 0 0 0 0 0 0 0 0 0 0 0 0.25 0"/>
<feBlend mode="normal" in2="BackgroundImageFix" result="effect1_dropShadow_681_659"/>
<feBlend mode="normal" in="SourceGraphic" in2="effect1_dropShadow_681_659" result="shape"/>
</filter>
<filter id="filter32_d_681_659" x="346.324" y="83.5808" width="25.2046" height="25.2047" filterUnits="userSpaceOnUse" color-interpolation-filters="sRGB">
<feFlood flood-opacity="0" result="BackgroundImageFix"/>
<feColorMatrix in="SourceAlpha" type="matrix" values="0 0 0 0 0 0 0 0 0 0 0 0 0 0 0 0 0 0 127 0" result="hardAlpha"/>
<feOffset dx="1.5" dy="3"/>
<feGaussianBlur stdDeviation="3"/>
<feComposite in2="hardAlpha" operator="out"/>
<feColorMatrix type="matrix" values="0 0 0 0 0 0 0 0 0 0 0 0 0 0 0 0 0 0 0.25 0"/>
<feBlend mode="normal" in2="BackgroundImageFix" result="effect1_dropShadow_681_659"/>
<feBlend mode="normal" in="SourceGraphic" in2="effect1_dropShadow_681_659" result="shape"/>
</filter>
<filter id="filter33_d_681_659" x="368.81" y="101.83" width="25.2046" height="25.2047" filterUnits="userSpaceOnUse" color-interpolation-filters="sRGB">
<feFlood flood-opacity="0" result="BackgroundImageFix"/>
<feColorMatrix in="SourceAlpha" type="matrix" values="0 0 0 0 0 0 0 0 0 0 0 0 0 0 0 0 0 0 127 0" result="hardAlpha"/>
<feOffset dx="1.5" dy="3"/>
<feGaussianBlur stdDeviation="3"/>
<feComposite in2="hardAlpha" operator="out"/>
<feColorMatrix type="matrix" values="0 0 0 0 0 0 0 0 0 0 0 0 0 0 0 0 0 0 0.25 0"/>
<feBlend mode="normal" in2="BackgroundImageFix" result="effect1_dropShadow_681_659"/>
<feBlend mode="normal" in="SourceGraphic" in2="effect1_dropShadow_681_659" result="shape"/>
</filter>
<filter id="filter34_d_681_659" x="368.81" y="120.079" width="25.2046" height="25.2047" filterUnits="userSpaceOnUse" color-interpolation-filters="sRGB">
<feFlood flood-opacity="0" result="BackgroundImageFix"/>
<feColorMatrix in="SourceAlpha" type="matrix" values="0 0 0 0 0 0 0 0 0 0 0 0 0 0 0 0 0 0 127 0" result="hardAlpha"/>
<feOffset dx="1.5" dy="3"/>
<feGaussianBlur stdDeviation="3"/>
<feComposite in2="hardAlpha" operator="out"/>
<feColorMatrix type="matrix" values="0 0 0 0 0 0 0 0 0 0 0 0 0 0 0 0 0 0 0.25 0"/>
<feBlend mode="normal" in2="BackgroundImageFix" result="effect1_dropShadow_681_659"/>
<feBlend mode="normal" in="SourceGraphic" in2="effect1_dropShadow_681_659" result="shape"/>
</filter>
<filter id="filter35_d_681_659" x="391.295" y="120.079" width="25.2046" height="25.2047" filterUnits="userSpaceOnUse" color-interpolation-filters="sRGB">
<feFlood flood-opacity="0" result="BackgroundImageFix"/>
<feColorMatrix in="SourceAlpha" type="matrix" values="0 0 0 0 0 0 0 0 0 0 0 0 0 0 0 0 0 0 127 0" result="hardAlpha"/>
<feOffset dx="1.5" dy="3"/>
<feGaussianBlur stdDeviation="3"/>
<feComposite in2="hardAlpha" operator="out"/>
<feColorMatrix type="matrix" values="0 0 0 0 0 0 0 0 0 0 0 0 0 0 0 0 0 0 0.25 0"/>
<feBlend mode="normal" in2="BackgroundImageFix" result="effect1_dropShadow_681_659"/>
<feBlend mode="normal" in="SourceGraphic" in2="effect1_dropShadow_681_659" result="shape"/>
</filter>
<filter id="filter36_d_681_659" x="188.925" y="101.83" width="25.2046" height="25.2047" filterUnits="userSpaceOnUse" color-interpolation-filters="sRGB">
<feFlood flood-opacity="0" result="BackgroundImageFix"/>
<feColorMatrix in="SourceAlpha" type="matrix" values="0 0 0 0 0 0 0 0 0 0 0 0 0 0 0 0 0 0 127 0" result="hardAlpha"/>
<feOffset dx="1.5" dy="3"/>
<feGaussianBlur stdDeviation="3"/>
<feComposite in2="hardAlpha" operator="out"/>
<feColorMatrix type="matrix" values="0 0 0 0 0 0 0 0 0 0 0 0 0 0 0 0 0 0 0.25 0"/>
<feBlend mode="normal" in2="BackgroundImageFix" result="effect1_dropShadow_681_659"/>
<feBlend mode="normal" in="SourceGraphic" in2="effect1_dropShadow_681_659" result="shape"/>
</filter>
<filter id="filter37_d_681_659" x="211.411" y="83.5808" width="25.2048" height="25.2047" filterUnits="userSpaceOnUse" color-interpolation-filters="sRGB">
<feFlood flood-opacity="0" result="BackgroundImageFix"/>
<feColorMatrix in="SourceAlpha" type="matrix" values="0 0 0 0 0 0 0 0 0 0 0 0 0 0 0 0 0 0 127 0" result="hardAlpha"/>
<feOffset dx="1.5" dy="3"/>
<feGaussianBlur stdDeviation="3"/>
<feComposite in2="hardAlpha" operator="out"/>
<feColorMatrix type="matrix" values="0 0 0 0 0 0 0 0 0 0 0 0 0 0 0 0 0 0 0.25 0"/>
<feBlend mode="normal" in2="BackgroundImageFix" result="effect1_dropShadow_681_659"/>
<feBlend mode="normal" in="SourceGraphic" in2="effect1_dropShadow_681_659" result="shape"/>
</filter>
<filter id="filter38_d_681_659" x="278.867" y="120.079" width="25.2048" height="25.2047" filterUnits="userSpaceOnUse" color-interpolation-filters="sRGB">
<feFlood flood-opacity="0" result="BackgroundImageFix"/>
<feColorMatrix in="SourceAlpha" type="matrix" values="0 0 0 0 0 0 0 0 0 0 0 0 0 0 0 0 0 0 127 0" result="hardAlpha"/>
<feOffset dx="1.5" dy="3"/>
<feGaussianBlur stdDeviation="3"/>
<feComposite in2="hardAlpha" operator="out"/>
<feColorMatrix type="matrix" values="0 0 0 0 0 0 0 0 0 0 0 0 0 0 0 0 0 0 0.25 0"/>
<feBlend mode="normal" in2="BackgroundImageFix" result="effect1_dropShadow_681_659"/>
<feBlend mode="normal" in="SourceGraphic" in2="effect1_dropShadow_681_659" result="shape"/>
</filter>
<filter id="filter39_d_681_659" x="346.324" y="101.83" width="25.2046" height="25.2047" filterUnits="userSpaceOnUse" color-interpolation-filters="sRGB">
<feFlood flood-opacity="0" result="BackgroundImageFix"/>
<feColorMatrix in="SourceAlpha" type="matrix" values="0 0 0 0 0 0 0 0 0 0 0 0 0 0 0 0 0 0 127 0" result="hardAlpha"/>
<feOffset dx="1.5" dy="3"/>
<feGaussianBlur stdDeviation="3"/>
<feComposite in2="hardAlpha" operator="out"/>
<feColorMatrix type="matrix" values="0 0 0 0 0 0 0 0 0 0 0 0 0 0 0 0 0 0 0.25 0"/>
<feBlend mode="normal" in2="BackgroundImageFix" result="effect1_dropShadow_681_659"/>
<feBlend mode="normal" in="SourceGraphic" in2="effect1_dropShadow_681_659" result="shape"/>
</filter>
<filter id="filter40_d_681_659" x="368.81" y="83.5808" width="25.2046" height="25.2047" filterUnits="userSpaceOnUse" color-interpolation-filters="sRGB">
<feFlood flood-opacity="0" result="BackgroundImageFix"/>
<feColorMatrix in="SourceAlpha" type="matrix" values="0 0 0 0 0 0 0 0 0 0 0 0 0 0 0 0 0 0 127 0" result="hardAlpha"/>
<feOffset dx="1.5" dy="3"/>
<feGaussianBlur stdDeviation="3"/>
<feComposite in2="hardAlpha" operator="out"/>
<feColorMatrix type="matrix" values="0 0 0 0 0 0 0 0 0 0 0 0 0 0 0 0 0 0 0.25 0"/>
<feBlend mode="normal" in2="BackgroundImageFix" result="effect1_dropShadow_681_659"/>
<feBlend mode="normal" in="SourceGraphic" in2="effect1_dropShadow_681_659" result="shape"/>
</filter>
<filter id="filter41_d_681_659" x="368.81" y="156.577" width="25.2046" height="25.2048" filterUnits="userSpaceOnUse" color-interpolation-filters="sRGB">
<feFlood flood-opacity="0" result="BackgroundImageFix"/>
<feColorMatrix in="SourceAlpha" type="matrix" values="0 0 0 0 0 0 0 0 0 0 0 0 0 0 0 0 0 0 127 0" result="hardAlpha"/>
<feOffset dx="1.5" dy="3"/>
<feGaussianBlur stdDeviation="3"/>
<feComposite in2="hardAlpha" operator="out"/>
<feColorMatrix type="matrix" values="0 0 0 0 0 0 0 0 0 0 0 0 0 0 0 0 0 0 0.25 0"/>
<feBlend mode="normal" in2="BackgroundImageFix" result="effect1_dropShadow_681_659"/>
<feBlend mode="normal" in="SourceGraphic" in2="effect1_dropShadow_681_659" result="shape"/>
</filter>
<filter id="filter42_d_681_659" x="391.295" y="83.5808" width="25.2046" height="25.2047" filterUnits="userSpaceOnUse" color-interpolation-filters="sRGB">
<feFlood flood-opacity="0" result="BackgroundImageFix"/>
<feColorMatrix in="SourceAlpha" type="matrix" values="0 0 0 0 0 0 0 0 0 0 0 0 0 0 0 0 0 0 127 0" result="hardAlpha"/>
<feOffset dx="1.5" dy="3"/>
<feGaussianBlur stdDeviation="3"/>
<feComposite in2="hardAlpha" operator="out"/>
<feColorMatrix type="matrix" values="0 0 0 0 0 0 0 0 0 0 0 0 0 0 0 0 0 0 0.25 0"/>
<feBlend mode="normal" in2="BackgroundImageFix" result="effect1_dropShadow_681_659"/>
<feBlend mode="normal" in="SourceGraphic" in2="effect1_dropShadow_681_659" result="shape"/>
</filter>
<filter id="filter43_d_681_659" x="391.295" y="101.83" width="25.2046" height="25.2047" filterUnits="userSpaceOnUse" color-interpolation-filters="sRGB">
<feFlood flood-opacity="0" result="BackgroundImageFix"/>
<feColorMatrix in="SourceAlpha" type="matrix" values="0 0 0 0 0 0 0 0 0 0 0 0 0 0 0 0 0 0 127 0" result="hardAlpha"/>
<feOffset dx="1.5" dy="3"/>
<feGaussianBlur stdDeviation="3"/>
<feComposite in2="hardAlpha" operator="out"/>
<feColorMatrix type="matrix" values="0 0 0 0 0 0 0 0 0 0 0 0 0 0 0 0 0 0 0.25 0"/>
<feBlend mode="normal" in2="BackgroundImageFix" result="effect1_dropShadow_681_659"/>
<feBlend mode="normal" in="SourceGraphic" in2="effect1_dropShadow_681_659" result="shape"/>
</filter>
<filter id="filter44_d_681_659" x="391.295" y="138.328" width="25.2046" height="25.2048" filterUnits="userSpaceOnUse" color-interpolation-filters="sRGB">
<feFlood flood-opacity="0" result="BackgroundImageFix"/>
<feColorMatrix in="SourceAlpha" type="matrix" values="0 0 0 0 0 0 0 0 0 0 0 0 0 0 0 0 0 0 127 0" result="hardAlpha"/>
<feOffset dx="1.5" dy="3"/>
<feGaussianBlur stdDeviation="3"/>
<feComposite in2="hardAlpha" operator="out"/>
<feColorMatrix type="matrix" values="0 0 0 0 0 0 0 0 0 0 0 0 0 0 0 0 0 0 0.25 0"/>
<feBlend mode="normal" in2="BackgroundImageFix" result="effect1_dropShadow_681_659"/>
<feBlend mode="normal" in="SourceGraphic" in2="effect1_dropShadow_681_659" result="shape"/>
</filter>
<filter id="filter45_d_681_659" x="391.295" y="156.577" width="25.2046" height="25.2048" filterUnits="userSpaceOnUse" color-interpolation-filters="sRGB">
<feFlood flood-opacity="0" result="BackgroundImageFix"/>
<feColorMatrix in="SourceAlpha" type="matrix" values="0 0 0 0 0 0 0 0 0 0 0 0 0 0 0 0 0 0 127 0" result="hardAlpha"/>
<feOffset dx="1.5" dy="3"/>
<feGaussianBlur stdDeviation="3"/>
<feComposite in2="hardAlpha" operator="out"/>
<feColorMatrix type="matrix" values="0 0 0 0 0 0 0 0 0 0 0 0 0 0 0 0 0 0 0.25 0"/>
<feBlend mode="normal" in2="BackgroundImageFix" result="effect1_dropShadow_681_659"/>
<feBlend mode="normal" in="SourceGraphic" in2="effect1_dropShadow_681_659" result="shape"/>
</filter>
</defs>
</svg>
